<?xml version="1.0" encoding="UTF-8" standalone="no"?>
<svg
   viewBox="0 0 570.04 391.19"
   version="1.1"
   id="svg1669"
   sodipodi:docname="Schematics_Renal Corpuscle - human_edited.svg"
   inkscape:version="1.1 (c68e22c387, 2021-05-23)"
   xmlns:inkscape="http://www.inkscape.org/namespaces/inkscape"
   xmlns:sodipodi="http://sodipodi.sourceforge.net/DTD/sodipodi-0.dtd"
   xmlns="http://www.w3.org/2000/svg"
   xmlns:svg="http://www.w3.org/2000/svg">
  <sodipodi:namedview
     id="namedview1671"
     pagecolor="#ffffff"
     bordercolor="#666666"
     borderopacity="1.0"
     inkscape:pageshadow="2"
     inkscape:pageopacity="0.0"
     inkscape:pagecheckerboard="0"
     showgrid="false"
     inkscape:zoom="2.8630588"
     inkscape:cx="306.49039"
     inkscape:cy="232.61835"
     inkscape:window-width="1366"
     inkscape:window-height="706"
     inkscape:window-x="-8"
     inkscape:window-y="-8"
     inkscape:window-maximized="1"
     inkscape:current-layer="mesangium" />
  <defs
     id="defs4">
    <style
       id="style2">.cls-1{font-size:7px;fill:gray;}.cls-1,.cls-32,.cls-53{font-family:LibreFranklin-Regular, Libre Franklin;}.cls-2{letter-spacing:-0.01em;}.cls-3{letter-spacing:-0.06em;}.cls-4{fill:#af294d;stroke:#7a1e3a;stroke-width:0.38px;}.cls-10,.cls-11,.cls-12,.cls-13,.cls-15,.cls-19,.cls-20,.cls-21,.cls-22,.cls-24,.cls-25,.cls-26,.cls-27,.cls-37,.cls-4,.cls-60,.cls-8,.cls-9{stroke-miterlimit:10;}.cls-5{fill:#7a1e3a;}.cls-6{fill:#fff3db;}.cls-27,.cls-7{fill:#fff;}.cls-10,.cls-8,.cls-9{fill:#ffdfa4;stroke:#e5c698;}.cls-20,.cls-21,.cls-26,.cls-8{stroke-width:0.75px;}.cls-11,.cls-12,.cls-9{stroke-width:2px;}.cls-11,.cls-12,.cls-60{fill:none;}.cls-11{stroke:#ffdfa4;}.cls-12,.cls-24,.cls-25{stroke:#8a93b2;}.cls-13{fill:#8ac2e9;stroke:#6d9bb5;stroke-width:0.8px;}.cls-14{fill:#6d9bb5;}.cls-15{fill:#3989c9;stroke:#2b6993;}.cls-15,.cls-17,.cls-18,.cls-22,.cls-24,.cls-25,.cls-60{stroke-width:0.5px;}.cls-16{fill:#2b6993;}.cls-17,.cls-19{fill:#e0a9b5;}.cls-17{stroke:#e05a77;}.cls-18{fill:#7c3e48;stroke:#7c3e48;}.cls-19{stroke:#e26f82;}.cls-19,.cls-37{stroke-width:0.25px;}.cls-20,.cls-22{fill:#a1e5df;}.cls-20,.cls-21,.cls-22{stroke:#84b2aa;}.cls-21,.cls-23{fill:#84b2aa;}.cls-24{fill:#acb6e5;}.cls-25{fill:#8a93b2;}.cls-26{fill:#ed8863;stroke:#b7674e;}.cls-27{stroke:#ed8863;stroke-width:0.1px;opacity:0.59;}.cls-28,.cls-30{fill:#bdd393;}.cls-28,.cls-29,.cls-30,.cls-31{stroke:#8f9e6f;}.cls-28{stroke-width:0.42px;}.cls-29,.cls-31{fill:#8f9e6f;}.cls-29{stroke-width:0.31px;}.cls-30{stroke-width:0.42px;}.cls-31{stroke-width:0.31px;}.cls-32{font-size:10px;}.cls-33{letter-spacing:0em;}.cls-34,.cls-53,.cls-54{font-size:8px;}.cls-35{letter-spacing:-0.01em;}.cls-36{letter-spacing:0em;}.cls-37,.cls-60{stroke:#000;}.cls-38{letter-spacing:-0.01em;}.cls-39{letter-spacing:-0.02em;}.cls-40{letter-spacing:-0.01em;}.cls-41{letter-spacing:0em;}.cls-42{letter-spacing:0em;}.cls-43{letter-spacing:-0.01em;}.cls-44{letter-spacing:0em;}.cls-45{letter-spacing:0em;}.cls-46{letter-spacing:-0.01em;}.cls-47{letter-spacing:-0.03em;}.cls-48{letter-spacing:0em;}.cls-49{letter-spacing:-0.01em;}.cls-50{letter-spacing:-0.01em;}.cls-51{letter-spacing:-0.01em;}.cls-52{letter-spacing:-0.02em;}.cls-54{font-family:LibreFranklin-Italic, Libre Franklin;font-style:italic;}.cls-55{letter-spacing:-0.01em;}.cls-56{letter-spacing:-0.02em;}.cls-57{letter-spacing:0em;}.cls-58{letter-spacing:-0.01em;}.cls-59{font-size:21px;font-family:LibreFranklin-Bold, Libre Franklin;font-weight:700;}</style>
  </defs>
  <g
     id="endothelial_cells"
     data-name="endothelial cells">
    <path
       class="cls-17"
       d="M252.56,184.33a2,2,0,0,1,.43-1.72c.31-.23.37-.2.73.27s.22,1.13.42,1.68.3,1.36.48,1.92a16.91,16.91,0,0,1,.57,2.71,7.52,7.52,0,0,0,1.45,3.75,5.44,5.44,0,0,1,.64,2.33c.07,1.8-.5,1.79-.63,2.55a10.4,10.4,0,0,0-.14,2c0,.92,0,.8,0,1.74-.15,2.3.15,3,0,4.45-.11.57-.3,1.67-.78,1.73s-.49-.4-.55-.58a5.69,5.69,0,0,1-.14-1.3,13,13,0,0,1,0-1.54c0-4.05-.75-8.22-1.27-12.45a19.29,19.29,0,0,0-.35-2.13c-.16-.68-.42-1.56-.52-2.25a17.44,17.44,0,0,1-.25-3.2"
       transform="translate(-18.97 -19.42)"
       id="path187" />
    <path
       class="cls-17"
       d="M254.37,209.63c.24-.49.43-1.1,1-1.28.36-.12.42-.09.62.47s-.2,1.14-.29,1.73a7.71,7.71,0,0,1-.74,1.91,5.64,5.64,0,0,1-.75,1.22,5.57,5.57,0,0,1-1,1.08c-.47.43-.82.79-1.11,1.09a6.92,6.92,0,0,0-.72.73c-.38.44-.58.88-1,1.33a4.68,4.68,0,0,1-2.14,1.38c-1.81.59-1.92,0-2.7,0-.52,0-1.51.15-2,.22a13.94,13.94,0,0,1-1.72.22c-2.3.14-3,.52-4.42.57-.59,0-1.69,0-1.86-.47s.31-.58.48-.65a6.12,6.12,0,0,1,1.3-.35,13.9,13.9,0,0,1,1.55-.26,12.77,12.77,0,0,0,1.51-.22c.5-.09,1-.17,1.5-.27,1-.26,2-.46,2.92-.81a27.94,27.94,0,0,0,2.81-1.06,23.17,23.17,0,0,0,2.58-1.43,5.46,5.46,0,0,0,1.52-1.23,18.81,18.81,0,0,0,1.25-1.61,17,17,0,0,0,1.44-2.33"
       transform="translate(-18.97 -19.42)"
       id="renal_afferent_arteriole_1" />
    <path
       class="cls-17"
       d="M233.28,219a1.87,1.87,0,0,1,1.57.61c.2.34.18.4-.32.71s-1.15.1-1.73.21-1.41,0-2,0a11.73,11.73,0,0,1-2.8-.31,10.21,10.21,0,0,0-4.12-.29,5.32,5.32,0,0,1-2.44-.67c-1.54-1-1.22-1.44-1.77-2a11.11,11.11,0,0,0-1.61-1.21,12.88,12.88,0,0,1-1.46-.94,37.16,37.16,0,0,0-3.81-2.31,7.36,7.36,0,0,1-.86-.66,1.07,1.07,0,0,1-.38-.8c.11-.39.58-.28.76-.23a10.9,10.9,0,0,1,2.72,1.2c.9.52,1.79,1.08,2.7,1.59l2.81,1.39a34.62,34.62,0,0,0,5.62,2.46,11.4,11.4,0,0,0,2,.51c.66.11,1.54.1,2.19.23,1.72.23,1.83.25,3,.46"
       transform="translate(-18.97 -19.42)"
       id="renal_afferent_arteriole_2" />
    <path
       class="cls-17"
       d="M210.14,209.46c.47.36,1,.83,1,1.41,0,.39-.08.42-.66.4s-1-.57-1.54-.82-1.21-.72-1.74-1a14.22,14.22,0,0,1-2.17-1.75,9.77,9.77,0,0,0-2-1.49c-.5-.26-.89-.41-1.43-.67a5.63,5.63,0,0,1-1.86-1.58c-1.11-1.44-.64-1.73-.92-2.46a9.8,9.8,0,0,0-1-1.77c-.53-.75-.45-.67-.95-1.45-.65-1-1.06-1.6-1.48-2.1a14.23,14.23,0,0,1-1.15-1.51c-.3-.49-.88-1.44-.6-1.8s.65-.05.81,0a9.62,9.62,0,0,1,2,2.18l.92,1.28c.31.42.66.81,1,1.22l2,2.43c.63.84,1.41,1.54,2.09,2.33s1.38,1.57,2.1,2.33a17.52,17.52,0,0,0,1.56,1.42c.54.41,1.27.91,1.77,1.37,1.33,1.16,1.47,1.17,2.32,2"
       transform="translate(-18.97 -19.42)"
       id="renal_afferent_arteriole_3" />
    <path
       class="cls-17"
       d="M193,190.5a1.91,1.91,0,0,1,.35,1.68c-.17.35-.23.36-.76.12s-.71-.92-1.11-1.34-.84-1.13-1.21-1.6a10,10,0,0,1-1.45-2.38,8.16,8.16,0,0,0-2.52-3.18,5.49,5.49,0,0,1-1.22-2.09c-.57-1.71,0-1.85-.11-2.61a13.28,13.28,0,0,0-.42-2c-.29-.87-.23-.77-.48-1.67a12.42,12.42,0,0,0-.9-2.4,15,15,0,0,1-.71-1.76c-.16-.56-.47-1.62-.11-1.92s.64.12.76.26a9.43,9.43,0,0,1,1.4,2.66l2.4,5.87,1.28,2.9c.41,1,.8,2,1.26,2.9a19.89,19.89,0,0,0,1,1.9c.36.58.86,1.32,1.17,1.92a19,19,0,0,1,1.43,2.74"
       transform="translate(-18.97 -19.42)"
       id="renal_afferent_arteriole_4" />
    <path
       class="cls-17"
       d="M182.33,167c.17.58.35,1.26,0,1.71-.24.3-.31.3-.78-.06s-.52-1-.81-1.54-.55-1.29-.81-1.82a15.06,15.06,0,0,1-1-2.61,7.74,7.74,0,0,0-1.86-3.57,5.46,5.46,0,0,1-.91-2.23c-.29-1.76.28-1.83.32-2.6a10.38,10.38,0,0,0-.16-2c-.18-.9-.14-.78-.28-1.71a37.34,37.34,0,0,0-1.1-4.32c-.11-.57-.32-1.66.06-1.92s.63.18.74.33a9.76,9.76,0,0,1,1.14,2.8c1.09,4.13,2.24,8.23,3.24,12.36a16.27,16.27,0,0,0,.58,2.07c.25.64.63,1.46.83,2.12a20.19,20.19,0,0,1,.77,3"
       transform="translate(-18.97 -19.42)"
       id="renal_afferent_arteriole_5" />
    <path
       class="cls-17"
       d="M161.54,146.17c-.07-.56-.1-1.22.34-1.57.29-.23.36-.21.75.19s.29,1,.49,1.54.32,1.26.48,1.78a12.17,12.17,0,0,1,.5,2.5,6,6,0,0,0,1.42,3.43,4.51,4.51,0,0,1,.66,2.09c.12,1.62-.44,1.67-.54,2.37a8.19,8.19,0,0,0,.07,1.85c.15.83.11.73.22,1.58a24.09,24.09,0,0,0,1,4c.12.52.36,1.51,0,1.78s-.63-.12-.74-.26a7.07,7.07,0,0,1-1.17-2.59c-.5-1.94-1-3.87-1.48-5.82s-.72-3.93-1-5.91c-.09-.66-.18-1.33-.32-2s-.37-1.45-.45-2.09a18.11,18.11,0,0,1-.24-2.92"
       transform="translate(-18.97 -19.42)"
       id="renal_afferent_arteriole_6" />
    <path
       class="cls-17"
       d="M166.86,170a1.73,1.73,0,0,1,.1-1.62c.25-.28.32-.27.76.07s.44,1,.72,1.44.5,1.19.74,1.68a14.11,14.11,0,0,1,1,2.36,6.32,6.32,0,0,0,2,3.12A5.15,5.15,0,0,1,173.2,179c.45,1.55-.08,1.7,0,2.41a9.35,9.35,0,0,0,.38,1.82c.29.8.26.69.53,1.51a29,29,0,0,0,1.86,3.68c.19.51.65,1.42.34,1.76s-.65,0-.78-.1a7.19,7.19,0,0,1-1.66-2.3c-.92-1.79-1.87-3.56-2.61-5.43a49.51,49.51,0,0,1-2.13-5.62,17.77,17.77,0,0,0-.66-1.9c-.27-.59-.66-1.36-.87-2a14.71,14.71,0,0,1-.71-2.85"
       transform="translate(-18.97 -19.42)"
       id="renal_afferent_arteriole_7" />
    <path
       class="cls-17"
       d="M176.7,192.37a1.75,1.75,0,0,1-.27-1.6c.19-.33.26-.33.77-.1s.65.85,1,1.25.75,1.05,1.09,1.47a17.66,17.66,0,0,1,1.48,2.08,6.27,6.27,0,0,0,2.62,2.59,4.86,4.86,0,0,1,1.49,1.6c.8,1.4.31,1.68.52,2.36a6.73,6.73,0,0,0,.81,1.66c.5.69.42.61.89,1.34a23,23,0,0,0,2.67,3.13c.35.41,1,1.21.78,1.61s-.62.17-.78.09a7,7,0,0,1-2.2-1.81,65.57,65.57,0,0,1-7.22-9.63,15.89,15.89,0,0,0-1.08-1.71c-.39-.52-.95-1.17-1.29-1.72a17,17,0,0,1-1.31-2.64"
       transform="translate(-18.97 -19.42)"
       id="renal_afferent_arteriole_8" />
    <path
       class="cls-17"
       d="M191.5,211.85c-.37-.42-.78-1-.62-1.5.1-.37.16-.39.71-.28s.82.68,1.27,1,1,.82,1.45,1.13a12.17,12.17,0,0,1,1.92,1.68,5.71,5.71,0,0,0,3.2,1.85,4.46,4.46,0,0,1,1.81,1.23c1.08,1.2.69,1.56,1.06,2.16a9,9,0,0,0,1.21,1.41,15.09,15.09,0,0,1,1.15,1.12c1.51,1.52,2.34,1.57,3.34,2.41.42.33,1.22,1,1.09,1.42s-.56.3-.73.26a8.41,8.41,0,0,1-2.54-1.28l-1.24-.85-1.19-.92L201,220.83c-1.57-1.25-3-2.64-4.48-4-.49-.45-.92-1-1.45-1.4s-1.19-.92-1.65-1.38a11.73,11.73,0,0,1-1.94-2.2"
       transform="translate(-18.97 -19.42)"
       id="renal_afferent_arteriole_9" />
    <path
       class="cls-17"
       d="M210.56,227.29c-.5-.31-1.07-.75-1-1.31,0-.39.07-.41.63-.44s1,.46,1.5.59,1.18.48,1.7.62a21.69,21.69,0,0,1,2.38.83,5.51,5.51,0,0,0,3.64.34,4.71,4.71,0,0,1,2.13.28c1.51.53,1.34,1.05,1.94,1.41a7.09,7.09,0,0,0,1.72.68c.82.21.71.19,1.55.43a22.74,22.74,0,0,0,4.09.5c.53.09,1.54.25,1.65.69s-.35.54-.52.59a8.07,8.07,0,0,1-2.84.13,51.76,51.76,0,0,1-11.86-2.48c-.64-.25-1.28-.48-1.94-.68a16.14,16.14,0,0,1-2.11-.67,12.11,12.11,0,0,1-2.65-1.52"
       transform="translate(-18.97 -19.42)"
       id="renal_afferent_arteriole_10" />
    <path
       class="cls-17"
       d="M234.62,232.78c-.59,0-1.31-.12-1.55-.63-.17-.35-.13-.4.34-.69s1.07-.09,1.59-.22,1.27-.15,1.79-.32a21,21,0,0,1,2.46-.49,5.33,5.33,0,0,0,3.23-1.67,4.94,4.94,0,0,1,2-.92c1.56-.37,1.69.17,2.4.16a9.26,9.26,0,0,0,1.82-.33,15.38,15.38,0,0,1,1.55-.44,36,36,0,0,0,3.83-1.52c.51-.16,1.5-.43,1.78-.07s-.09.63-.22.74a8.48,8.48,0,0,1-2.41,1.35,70.33,70.33,0,0,1-11.3,4.06c-.67.16-1.36.26-2,.47a14.69,14.69,0,0,1-2.18.51,12.44,12.44,0,0,1-1.76.11,9,9,0,0,1-1.33-.1"
       transform="translate(-18.97 -19.42)"
       id="renal_afferent_arteriole_11" />
    <path
       class="cls-17"
       d="M258.1,225.66a1.66,1.66,0,0,1-1.64,0c-.28-.25-.28-.31.05-.77s1-.45,1.41-.76,1.1-.63,1.51-1a22.8,22.8,0,0,1,2.05-1.47,7.29,7.29,0,0,0,2.59-2.73,4.28,4.28,0,0,1,1.86-1.4c1.63-.64,1.79-.07,2.52-.12a6.55,6.55,0,0,0,1.77-.43,14.74,14.74,0,0,1,1.44-.69c1.9-1,2.22-1.74,3.3-2.47.44-.31,1.27-.9,1.66-.66s.13.62.05.78a7.67,7.67,0,0,1-2,2.08c-.79.63-1.63,1.23-2.5,1.82-.46.28-.87.57-1.38.83s-1.1.55-1.48.69a32.8,32.8,0,0,0-4.94,2.64,14.43,14.43,0,0,0-1.65,1.11,14,14,0,0,1-1.76,1.34,8.81,8.81,0,0,1-2.93,1.23"
       transform="translate(-18.97 -19.42)"
       id="renal_afferent_arteriole_12" />
    <path
       class="cls-17"
       d="M278.75,212.33c-.44.35-1,.73-1.52.55-.36-.13-.37-.19-.24-.73s.72-.79,1.05-1.23.88-.95,1.23-1.36a14.1,14.1,0,0,1,1.83-1.79,6.39,6.39,0,0,0,2.18-3,4.62,4.62,0,0,1,1.44-1.67c1.32-1,1.64-.51,2.3-.79a9.23,9.23,0,0,0,1.58-1c.65-.53.58-.45,1.28-1a30.62,30.62,0,0,0,3-2.83c.41-.34,1.22-1,1.62-.75s.16.62.08.77a8.44,8.44,0,0,1-1.73,2.18c-2.85,2.74-5.71,5.5-8.79,8a18.9,18.9,0,0,0-1.51,1.31c-.45.47-1,1.11-1.49,1.53a17.22,17.22,0,0,1-2.33,1.77"
       transform="translate(-18.97 -19.42)"
       id="renal_afferent_arteriole_13" />
    <path
       class="cls-19"
       d="M387.88,277c-.39-.32-.73.26-.88.54a2.09,2.09,0,0,0-.28.93,1.67,1.67,0,0,0,0,.8.69.69,0,0,0,.7.45c.28,0,.45-.3.58-.55a3.4,3.4,0,0,0,.21-1.15,1.1,1.1,0,0,0-.36-1"
       transform="translate(-18.97 -19.42)"
       id="path243" />
    <path
       class="cls-19"
       d="M387.53,280.9a1.87,1.87,0,0,0-.13-.48c-.09-.13-.59-.45-.8-.21a1.89,1.89,0,0,0-.48.78,7.35,7.35,0,0,1-.32.85.61.61,0,0,0,.11.45c.19.39.59.24.91,0a2.21,2.21,0,0,0,.71-1.35"
       transform="translate(-18.97 -19.42)"
       id="path245" />
    <path
       class="cls-19"
       d="M386.22,283.56c-.24-.44-.78,0-1,.17a2.36,2.36,0,0,0-.59.77,1.64,1.64,0,0,0-.26.77.69.69,0,0,0,.49.66.88.88,0,0,0,.73-.31,3.14,3.14,0,0,0,.62-1,1.18,1.18,0,0,0,.05-1.08"
       transform="translate(-18.97 -19.42)"
       id="path247" />
    <path
       class="cls-19"
       d="M384.49,287.09a2.13,2.13,0,0,0,0-.5c0-.15-.39-.61-.69-.46a1.78,1.78,0,0,0-.7.59c-.16.21-.42.48-.59.69a.66.66,0,0,0,0,.47c.05.43.49.42.87.25a2.26,2.26,0,0,0,1.11-1"
       transform="translate(-18.97 -19.42)"
       id="path249" />
    <path
       class="cls-19"
       d="M382.41,289.18c-.09-.49-.73-.27-1-.15a2.36,2.36,0,0,0-.8.56,1.41,1.41,0,0,0-.47.66.68.68,0,0,0,.27.78.81.81,0,0,0,.78-.09,2.79,2.79,0,0,0,.89-.75,1.18,1.18,0,0,0,.37-1"
       transform="translate(-18.97 -19.42)"
       id="path251" />
    <path
       class="cls-19"
       d="M379.67,292a1.75,1.75,0,0,0,.21-.46c0-.16-.18-.71-.51-.66a2.17,2.17,0,0,0-.83.27c-.2.13-.55.26-.78.38s-.18.22-.24.39c-.14.41.24.58.67.62a2.15,2.15,0,0,0,1.48-.54"
       transform="translate(-18.97 -19.42)"
       id="path253" />
    <path
       class="cls-19"
       d="M376.84,293.06c.14-.49-.52-.56-.86-.61a2.31,2.31,0,0,0-1,.14,1.49,1.49,0,0,0-.73.39.68.68,0,0,0-.08.82.8.8,0,0,0,.74.26,2.87,2.87,0,0,0,1.11-.27,1.18,1.18,0,0,0,.79-.73"
       transform="translate(-18.97 -19.42)"
       id="path255" />
    <path
       class="cls-19"
       d="M373.19,294.44a1.83,1.83,0,0,0,.35-.35c.07-.13.12-.72-.21-.8a1.94,1.94,0,0,0-.93,0c-.26.07-.65.13-.92.18s-.23.19-.32.35c-.22.37.13.62.54.73a2.22,2.22,0,0,0,1.49-.1"
       transform="translate(-18.97 -19.42)"
       id="path257" />
    <path
       class="cls-19"
       d="M370.3,294.79c.21-.45-.44-.64-.77-.72a2.12,2.12,0,0,0-1,0,1.5,1.5,0,0,0-.76.31.68.68,0,0,0-.17.81.89.89,0,0,0,.71.34,3,3,0,0,0,1.12-.15,1.18,1.18,0,0,0,.87-.62"
       transform="translate(-18.97 -19.42)"
       id="path259" />
    <path
       class="cls-19"
       d="M366.55,295.78a2.68,2.68,0,0,0,.38-.32c.07-.13.17-.71-.15-.82a1.85,1.85,0,0,0-.93-.08l-.93.11c-.15,0-.24.18-.35.33-.25.36.09.62.49.76a2.38,2.38,0,0,0,1.49,0"
       transform="translate(-18.97 -19.42)"
       id="path261" />
    <path
       class="cls-19"
       d="M363.64,295.92c.25-.44-.39-.66-.71-.77a2.25,2.25,0,0,0-1,0,1.38,1.38,0,0,0-.77.24.71.71,0,0,0-.24.8.86.86,0,0,0,.69.39,2.91,2.91,0,0,0,1.14-.08,1.14,1.14,0,0,0,.89-.56"
       transform="translate(-18.97 -19.42)"
       id="path263" />
    <path
       class="cls-19"
       d="M359.78,296.58a2,2,0,0,0,.43-.26c.1-.12.26-.68,0-.83a1.74,1.74,0,0,0-.88-.22l-.89-.09c-.15,0-.27.12-.41.24-.32.27-.08.64.28.86a2.19,2.19,0,0,0,1.5.3"
       transform="translate(-18.97 -19.42)"
       id="path265" />
    <path
       class="cls-19"
       d="M356.86,296c.36-.35-.17-.74-.42-1a2.13,2.13,0,0,0-.89-.38,1.34,1.34,0,0,0-.79-.09.72.72,0,0,0-.55.63c0,.29.25.48.48.64a2.4,2.4,0,0,0,1.11.37,1.09,1.09,0,0,0,1.06-.21"
       transform="translate(-18.97 -19.42)"
       id="path267" />
    <path
       class="cls-19"
       d="M353,295.14a2.06,2.06,0,0,0,.5-.06c.14-.07.52-.51.31-.77a1.89,1.89,0,0,0-.71-.56l-.78-.45c-.13-.07-.3,0-.47.05-.41.12-.33.56-.09.9a2.18,2.18,0,0,0,1.24.89"
       transform="translate(-18.97 -19.42)"
       id="path269" />
    <path
       class="cls-19"
       d="M350.56,293.47c.48-.19.13-.75,0-1.05a2.1,2.1,0,0,0-.69-.7,1.69,1.69,0,0,0-.72-.36.71.71,0,0,0-.73.41.87.87,0,0,0,.22.76,2.91,2.91,0,0,0,.89.74,1.12,1.12,0,0,0,1.05.2"
       transform="translate(-18.97 -19.42)"
       id="path271" />
    <path
       class="cls-19"
       d="M347.29,291.3a1.63,1.63,0,0,0,.49.1c.15,0,.66-.32.54-.63a2,2,0,0,0-.5-.78l-.65-.64a.58.58,0,0,0-.46-.09c-.43,0-.45.44-.33.85a2.38,2.38,0,0,0,.91,1.19"
       transform="translate(-18.97 -19.42)"
       id="path273" />
    <path
       class="cls-19"
       d="M345.42,289.05c.5-.07.3-.7.22-1a2.31,2.31,0,0,0-.53-.84,1.55,1.55,0,0,0-.66-.5.68.68,0,0,0-.78.26.85.85,0,0,0,.06.79,3.4,3.4,0,0,0,.71.89,1.15,1.15,0,0,0,1,.43"
       transform="translate(-18.97 -19.42)"
       id="path275" />
    <path
       class="cls-19"
       d="M342.67,286.29a2.12,2.12,0,0,0,.46.18c.16,0,.71-.2.65-.53a2,2,0,0,0-.39-.85c-.15-.21-.38-.53-.53-.76s-.27-.13-.46-.15c-.43-.05-.5.37-.44.79a2.23,2.23,0,0,0,.71,1.32"
       transform="translate(-18.97 -19.42)"
       id="path277" />
    <path
       class="cls-19"
       d="M357.26,249.36c-.22.45.42.66.74.75a2.54,2.54,0,0,0,1,0,1.5,1.5,0,0,0,.78-.27.7.7,0,0,0,.22-.8.85.85,0,0,0-.69-.37,3.13,3.13,0,0,0-1.14.08,1.2,1.2,0,0,0-.9.59"
       transform="translate(-18.97 -19.42)"
       id="path279" />
    <path
       class="cls-19"
       d="M361.09,248.6a2.12,2.12,0,0,0-.41.29c-.09.12-.23.69.08.83a1.92,1.92,0,0,0,.91.16h.92c.15,0,.26-.14.38-.28.29-.33,0-.63-.38-.82a2.26,2.26,0,0,0-1.5-.18"
       transform="translate(-18.97 -19.42)"
       id="path281" />
    <path
       class="cls-19"
       d="M364.17,248.82c-.31.4.28.72.58.87a2.32,2.32,0,0,0,1,.21,1.5,1.5,0,0,0,.81-.11.69.69,0,0,0,.37-.74.84.84,0,0,0-.6-.51,3.13,3.13,0,0,0-1.14-.13,1.18,1.18,0,0,0-1,.41"
       transform="translate(-18.97 -19.42)"
       id="path283" />
    <path
       class="cls-19"
       d="M368.07,248.81a2,2,0,0,0-.45.2c-.12.1-.37.64-.09.83a2.27,2.27,0,0,0,.86.34l.9.17c.15,0,.28-.09.43-.19.35-.25.12-.63-.21-.89a2.42,2.42,0,0,0-1.44-.46"
       transform="translate(-18.97 -19.42)"
       id="path285" />
    <path
       class="cls-19"
       d="M371.05,249.63c-.38.33.14.76.39,1a2.29,2.29,0,0,0,.9.4,1.4,1.4,0,0,0,.81.07.71.71,0,0,0,.53-.65.89.89,0,0,0-.49-.62,2.6,2.6,0,0,0-1.09-.36,1.15,1.15,0,0,0-1.05.18"
       transform="translate(-18.97 -19.42)"
       id="path287" />
    <path
       class="cls-19"
       d="M374.88,250.46a1.92,1.92,0,0,0-.49.09c-.14.08-.5.54-.27.79a2,2,0,0,0,.75.52l.84.37c.14.06.29,0,.46-.08.39-.16.27-.58,0-.91a2.25,2.25,0,0,0-1.29-.78"
       transform="translate(-18.97 -19.42)"
       id="path289" />
    <path
       class="cls-19"
       d="M377.59,252c-.45.21-.07.77.12,1a2.79,2.79,0,0,0,.74.63,1.74,1.74,0,0,0,.74.29.72.72,0,0,0,.7-.44.9.9,0,0,0-.27-.77,3.22,3.22,0,0,0-1-.66,1.17,1.17,0,0,0-1.07-.09"
       transform="translate(-18.97 -19.42)"
       id="path291" />
    <path
       class="cls-19"
       d="M381,254a1.86,1.86,0,0,0-.48-.12c-.16,0-.65.3-.55.62a1.64,1.64,0,0,0,.46.77c.19.17.39.49.57.69s.27.11.45.12c.44,0,.5-.39.41-.81a2.86,2.86,0,0,0-.31-.73A1.87,1.87,0,0,0,381,254"
       transform="translate(-18.97 -19.42)"
       id="path293" />
    <path
       class="cls-19"
       d="M382.8,256.55c-.51,0-.4.64-.38,1a2.07,2.07,0,0,0,.38.9,1.59,1.59,0,0,0,.54.61.68.68,0,0,0,.82-.1.87.87,0,0,0,.09-.79,2.74,2.74,0,0,0-.55-1,1.11,1.11,0,0,0-.9-.58"
       transform="translate(-18.97 -19.42)"
       id="path295" />
    <path
       class="cls-19"
       d="M385,259.79a2.1,2.1,0,0,0-.41-.28c-.15,0-.74.05-.74.38a1.89,1.89,0,0,0,.17.91c.11.24.26.59.35.85s.22.19.39.26c.41.15.59-.24.63-.66a2.27,2.27,0,0,0-.39-1.46"
       transform="translate(-18.97 -19.42)"
       id="path297" />
    <path
       class="cls-19"
       d="M385.94,262.74c-.47-.15-.57.52-.61.86a2.31,2.31,0,0,0,.16,1,1.46,1.46,0,0,0,.39.72.69.69,0,0,0,.83.08.91.91,0,0,0,.25-.75,2.5,2.5,0,0,0-.29-1.1c-.16-.35-.34-.68-.73-.78"
       transform="translate(-18.97 -19.42)"
       id="path299" />
    <path
       class="cls-19"
       d="M387.35,266.38A2,2,0,0,0,387,266c-.14-.07-.72-.11-.81.22a1.8,1.8,0,0,0,0,.92c.06.26.13.64.17.91s.18.23.33.33c.36.23.62-.11.75-.52a2.25,2.25,0,0,0-.08-1.5"
       transform="translate(-18.97 -19.42)"
       id="path301" />
    <path
       class="cls-19"
       d="M387.65,269.45c-.43-.24-.67.4-.78.72a2.16,2.16,0,0,0,0,1,1.43,1.43,0,0,0,.21.78.69.69,0,0,0,.79.26.87.87,0,0,0,.42-.67,2.63,2.63,0,0,0-.05-1.15,1.18,1.18,0,0,0-.55-.92"
       transform="translate(-18.97 -19.42)"
       id="path303" />
    <path
       class="cls-19"
       d="M388.23,273.33a1.71,1.71,0,0,0-.25-.43c-.11-.1-.68-.27-.83,0a1.86,1.86,0,0,0-.24.89c0,.26,0,.65-.05.91s.11.27.23.4c.3.32.63.06.86-.31a2.18,2.18,0,0,0,.28-1.48"
       transform="translate(-18.97 -19.42)"
       id="path305" />
    <path
       class="cls-19"
       d="M392,184.33c-.5,0-.32.7-.22,1a2.16,2.16,0,0,0,.52.84,1.54,1.54,0,0,0,.62.51.7.7,0,0,0,.8-.23.85.85,0,0,0,0-.79,2.75,2.75,0,0,0-.7-.92,1.17,1.17,0,0,0-1-.43"
       transform="translate(-18.97 -19.42)"
       id="path307" />
    <path
       class="cls-19"
       d="M394.72,187.22a2.07,2.07,0,0,0-.45-.23c-.16,0-.72.14-.69.47a2.42,2.42,0,0,0,.24.85,5.41,5.41,0,0,1,.34.78c.07.13.21.18.37.25.38.17.62-.18.67-.63a2.11,2.11,0,0,0-.48-1.49"
       transform="translate(-18.97 -19.42)"
       id="path309" />
    <path
       class="cls-19"
       d="M395.52,190.1c-.46-.23-.64.4-.81.66a3.23,3.23,0,0,0-.22.85,1.63,1.63,0,0,0,0,.73.75.75,0,0,0,.62.55c.31,0,.49-.25.65-.5a2.33,2.33,0,0,0,.28-1.25c0-.43-.1-.85-.49-1"
       transform="translate(-18.97 -19.42)"
       id="path311" />
    <path
       class="cls-19"
       d="M394.83,194.11a1.63,1.63,0,0,0,0-.51c-.05-.15-.47-.57-.73-.4a1.92,1.92,0,0,0-.66.56,8.6,8.6,0,0,1-.58.64c-.1.11-.06.28-.06.46,0,.43.45.47.84.31a2.42,2.42,0,0,0,.7-.41,2,2,0,0,0,.46-.65"
       transform="translate(-18.97 -19.42)"
       id="path313" />
    <path
       class="cls-19"
       d="M392.67,196.11c-.06-.49-.71-.3-1-.2a2.26,2.26,0,0,0-.82.54,1.45,1.45,0,0,0-.5.65.7.7,0,0,0,.27.79.84.84,0,0,0,.78-.08,2.8,2.8,0,0,0,.89-.71,1.17,1.17,0,0,0,.41-1"
       transform="translate(-18.97 -19.42)"
       id="path315" />
    <path
       class="cls-19"
       d="M389.92,198.88a1.69,1.69,0,0,0,.18-.46c0-.15-.19-.71-.51-.65a2,2,0,0,0-.85.35c-.21.15-.54.35-.77.49s-.14.26-.17.43c-.09.42.33.55.75.51a2.26,2.26,0,0,0,1.37-.67"
       transform="translate(-18.97 -19.42)"
       id="path317" />
    <path
       class="cls-19"
       d="M387.34,200.21c.07-.49-.6-.48-.93-.49a2.71,2.71,0,0,0-.93.23,1.73,1.73,0,0,0-.69.44.68.68,0,0,0,0,.83.86.86,0,0,0,.75.21,2.73,2.73,0,0,0,1.12-.39,1.17,1.17,0,0,0,.7-.83"
       transform="translate(-18.97 -19.42)"
       id="path319" />
    <path
       class="cls-19"
       d="M383.85,202a2,2,0,0,0,.31-.39c0-.14,0-.73-.31-.77a1.9,1.9,0,0,0-.94.11l-.89.33c-.15.06-.2.23-.27.4-.15.41.24.58.66.63a2.4,2.4,0,0,0,1.44-.31"
       transform="translate(-18.97 -19.42)"
       id="path321" />
    <path
       class="cls-19"
       d="M381.14,202.75c.12-.49-.55-.54-.89-.55a2.39,2.39,0,0,0-1,.27,1.46,1.46,0,0,0-.68.49.68.68,0,0,0,.05.83.85.85,0,0,0,.76.14,3,3,0,0,0,1-.4,1.16,1.16,0,0,0,.7-.78"
       transform="translate(-18.97 -19.42)"
       id="path323" />
    <path
       class="cls-19"
       d="M377.77,204.59a1.84,1.84,0,0,0,.28-.4c0-.15,0-.74-.36-.75a1.94,1.94,0,0,0-.92.17l-.87.37c-.14.06-.19.23-.24.41-.14.41.26.57.67.6a2.34,2.34,0,0,0,1.44-.4"
       transform="translate(-18.97 -19.42)"
       id="path325" />
    <path
       class="cls-19"
       d="M375.08,205.51c.11-.49-.57-.53-.91-.54a2.28,2.28,0,0,0-1,.25,1.49,1.49,0,0,0-.68.47.7.7,0,0,0,0,.84.91.91,0,0,0,.77.16,2.89,2.89,0,0,0,1.06-.39,1.19,1.19,0,0,0,.71-.79"
       transform="translate(-18.97 -19.42)"
       id="path327" />
    <path
       class="cls-19"
       d="M371.63,207.29a1.82,1.82,0,0,0,.3-.39c.05-.15,0-.74-.31-.77a2.1,2.1,0,0,0-.93.11c-.25.1-.62.21-.88.31s-.2.21-.28.38c-.17.4.22.6.63.65a2.28,2.28,0,0,0,1.47-.29"
       transform="translate(-18.97 -19.42)"
       id="path329" />
    <path
       class="cls-19"
       d="M368.87,208c.15-.48-.52-.57-.86-.61a2.18,2.18,0,0,0-1,.16,1.58,1.58,0,0,0-.73.42.69.69,0,0,0,0,.83.88.88,0,0,0,.75.23,3,3,0,0,0,1.08-.31,1.17,1.17,0,0,0,.78-.72"
       transform="translate(-18.97 -19.42)"
       id="path331" />
    <path
       class="cls-19"
       d="M365.31,209.51a2.22,2.22,0,0,0,.32-.38c.06-.14.06-.73-.27-.78a1.76,1.76,0,0,0-.95.08l-.91.29c-.15.06-.21.23-.28.4-.16.4.23.59.64.64a2.43,2.43,0,0,0,1.45-.25"
       transform="translate(-18.97 -19.42)"
       id="path333" />
    <path
       class="cls-19"
       d="M362.6,210.22c.12-.49-.56-.54-.91-.53a2.09,2.09,0,0,0-1,.31,1.45,1.45,0,0,0-.65.55.67.67,0,0,0,.13.83.88.88,0,0,0,.76.07,3.06,3.06,0,0,0,1-.45,1.16,1.16,0,0,0,.67-.78"
       transform="translate(-18.97 -19.42)"
       id="path335" />
    <path
       class="cls-19"
       d="M359.51,212.29a2.52,2.52,0,0,0,.17-.44c0-.15-.15-.72-.5-.67a1.84,1.84,0,0,0-.9.42c-.21.19-.53.45-.74.66a.62.62,0,0,0-.09.48c0,.43.45.43.84.31a2.5,2.5,0,0,0,1.22-.76"
       transform="translate(-18.97 -19.42)"
       id="path337" />
    <path
       class="cls-19"
       d="M357.34,214c-.1-.5-.73-.27-1-.13a2.26,2.26,0,0,0-.78.63,1.48,1.48,0,0,0-.42.71.7.7,0,0,0,.36.75.85.85,0,0,0,.76-.17A2.9,2.9,0,0,0,357,215a1.21,1.21,0,0,0,.32-1"
       transform="translate(-18.97 -19.42)"
       id="path339" />
    <path
       class="cls-19"
       d="M354.93,217a2.08,2.08,0,0,0,.11-.48c0-.15-.28-.67-.6-.57a2.11,2.11,0,0,0-.8.47c-.18.19-.48.43-.68.62s-.1.28-.1.46c0,.43.42.47.83.36a2.27,2.27,0,0,0,1.24-.86"
       transform="translate(-18.97 -19.42)"
       id="path341" />
    <path
       class="cls-19"
       d="M317.36,207.21a.35.35,0,0,0,.52.11,1.46,1.46,0,0,0,.47-.49,2,2,0,0,0,.28-1,1.45,1.45,0,0,0-.1-.85.68.68,0,0,0-.75-.35.86.86,0,0,0-.49.6,3,3,0,0,0-.17,1.07,1.19,1.19,0,0,0,.24.92"
       transform="translate(-18.97 -19.42)"
       id="path343" />
    <path
       class="cls-19"
       d="M317.49,203.47a1.91,1.91,0,0,0,.22.44c.11.1.65.33.83,0a1.81,1.81,0,0,0,.29-.88c0-.27.08-.65.11-.93s-.11-.27-.23-.41c-.28-.33-.63-.07-.86.28a2.3,2.3,0,0,0-.36,1.46"
       transform="translate(-18.97 -19.42)"
       id="path345" />
    <path
       class="cls-19"
       d="M318,201.12c.37.35.74-.21.91-.5a2.33,2.33,0,0,0,.25-1,1.6,1.6,0,0,0-.09-.84.71.71,0,0,0-.75-.39.84.84,0,0,0-.5.58,3,3,0,0,0-.16,1.11,1.2,1.2,0,0,0,.34,1"
       transform="translate(-18.97 -19.42)"
       id="path347" />
    <path
       class="cls-19"
       d="M318.05,197.26a2.87,2.87,0,0,0,.21.45c.11.11.65.37.83.09a1.9,1.9,0,0,0,.32-.88c0-.27.08-.66.11-.94s-.1-.28-.22-.42c-.28-.34-.63-.08-.87.26a2.39,2.39,0,0,0-.38,1.44"
       transform="translate(-18.97 -19.42)"
       id="path349" />
    <path
       class="cls-19"
       d="M318.58,194.94c.37.35.75-.21.93-.5a2.3,2.3,0,0,0,.27-1,1.56,1.56,0,0,0-.06-.83.71.71,0,0,0-.73-.41.88.88,0,0,0-.53.58,3,3,0,0,0-.2,1.12,1.18,1.18,0,0,0,.32,1"
       transform="translate(-18.97 -19.42)"
       id="path351" />
    <path
       class="cls-19"
       d="M318.8,191.06a1.89,1.89,0,0,0,.18.47c.1.12.62.39.82.12a2,2,0,0,0,.38-.84c.05-.25.16-.61.22-.86s-.06-.28-.16-.43c-.21-.37-.6-.2-.89.12a2.21,2.21,0,0,0-.55,1.42"
       transform="translate(-18.97 -19.42)"
       id="path353" />
    <path
       class="cls-19"
       d="M319.68,188.77c.27.42.76,0,1-.2a2.32,2.32,0,0,0,.58-.8,1.48,1.48,0,0,0,.23-.79.69.69,0,0,0-.54-.64.88.88,0,0,0-.7.35,3,3,0,0,0-.57,1,1.14,1.14,0,0,0,0,1.09"
       transform="translate(-18.97 -19.42)"
       id="path355" />
    <path
       class="cls-19"
       d="M321.19,185.18a2.11,2.11,0,0,0,0,.49c.06.14.46.58.74.39a1.93,1.93,0,0,0,.64-.7c.13-.24.33-.58.46-.83s0-.3-.05-.47c-.15-.42-.56-.29-.91-.06a2.4,2.4,0,0,0-.9,1.18"
       transform="translate(-18.97 -19.42)"
       id="path357" />
    <path
       class="cls-19"
       d="M322.54,183.23c.11.23.31.23.51.18a2.27,2.27,0,0,0,.54-.17,2.39,2.39,0,0,0,.77-.61,1.57,1.57,0,0,0,.43-.71.69.69,0,0,0-.35-.75.9.9,0,0,0-.77.15,3,3,0,0,0-.82.8,1.21,1.21,0,0,0-.31,1.11"
       transform="translate(-18.97 -19.42)"
       id="path359" />
    <path
       class="cls-19"
       d="M325,180.1a2.19,2.19,0,0,0-.11.48c0,.15.28.68.6.58a2,2,0,0,0,.8-.48c.19-.19.48-.45.68-.64s.1-.28.09-.47c0-.43-.44-.45-.84-.33a2.32,2.32,0,0,0-1.22.86"
       transform="translate(-18.97 -19.42)"
       id="path361" />
    <path
       class="cls-19"
       d="M326.86,178.64c.06.5.71.31,1,.21a2.53,2.53,0,0,0,.81-.53.43.43,0,0,0,.1-.09l.16-.12a1.08,1.08,0,0,0,.24-.32.68.68,0,0,0-.14-.82.82.82,0,0,0-.79,0l-.28.1-.3.21a5.75,5.75,0,0,0-.43.42,1.17,1.17,0,0,0-.4,1"
       transform="translate(-18.97 -19.42)"
       id="path363" />
    <path
       class="cls-19"
       d="M329.86,176.08a2.24,2.24,0,0,0-.25.43c0,.15.09.73.42.72a1.86,1.86,0,0,0,.9-.24c.23-.13.59-.29.83-.41s.18-.25.23-.42c.11-.42-.29-.56-.71-.57a2.3,2.3,0,0,0-1.42.49"
       transform="translate(-18.97 -19.42)"
       id="path365" />
    <path
       class="cls-19"
       d="M332.1,175.22c-.09.49.59.51.93.5a2.33,2.33,0,0,0,1-.29,1.47,1.47,0,0,0,.66-.49.69.69,0,0,0,0-.83.87.87,0,0,0-.78-.14,3.19,3.19,0,0,0-1.05.43,1.2,1.2,0,0,0-.67.82"
       transform="translate(-18.97 -19.42)"
       id="path367" />
    <path
       class="cls-19"
       d="M335.48,173.31a2,2,0,0,0-.29.4c0,.15,0,.74.35.76a2,2,0,0,0,.92-.15l.86-.34c.15-.06.2-.22.27-.39.16-.4-.24-.59-.66-.63a2.31,2.31,0,0,0-1.45.35"
       transform="translate(-18.97 -19.42)"
       id="path369" />
    <path
       class="cls-19"
       d="M337.79,172.67c-.13.48.54.55.87.58a2.36,2.36,0,0,0,1-.2,1.38,1.38,0,0,0,.7-.43.69.69,0,0,0,0-.84.84.84,0,0,0-.75-.2,3.06,3.06,0,0,0-1.09.33,1.19,1.19,0,0,0-.74.76"
       transform="translate(-18.97 -19.42)"
       id="path371" />
    <path
       class="cls-19"
       d="M341.33,171.08a2.1,2.1,0,0,0-.33.37c-.05.14-.06.73.28.79a1.93,1.93,0,0,0,.93-.07c.25-.08.63-.16.89-.24s.22-.21.3-.37c.2-.39-.17-.61-.59-.69a2.19,2.19,0,0,0-1.48.21"
       transform="translate(-18.97 -19.42)"
       id="path373" />
    <path
       class="cls-19"
       d="M343.69,170.66c-.18.47.48.6.81.67a2.36,2.36,0,0,0,1-.1,1.69,1.69,0,0,0,.75-.36.7.7,0,0,0,.11-.82.88.88,0,0,0-.73-.3,3.07,3.07,0,0,0-1.11.24c-.36.13-.7.28-.82.67"
       transform="translate(-18.97 -19.42)"
       id="path375" />
    <path
       class="cls-19"
       d="M347.38,169.44a2,2,0,0,0-.36.34c-.07.13-.14.72.18.81a2.16,2.16,0,0,0,.93,0l.92-.14c.15,0,.23-.18.34-.34.23-.36-.11-.62-.51-.75a2.32,2.32,0,0,0-1.5,0"
       transform="translate(-18.97 -19.42)"
       id="path377" />
    <path
       class="cls-19"
       d="M349.74,169.41c-.25.44.38.67.72.77a2.2,2.2,0,0,0,1,0,1.5,1.5,0,0,0,.79-.32.69.69,0,0,0,.15-.82.91.91,0,0,0-.71-.32,3.14,3.14,0,0,0-1.09.13,1.18,1.18,0,0,0-.88.56"
       transform="translate(-18.97 -19.42)"
       id="path379" />
    <path
       class="cls-19"
       d="M353.42,168.44a1.87,1.87,0,0,0-.35.34c-.07.13-.13.72.2.81a2.12,2.12,0,0,0,.94,0,2.7,2.7,0,0,1,.76-.09c.16,0,.27-.13.4-.27.3-.32,0-.63-.37-.82a2,2,0,0,0-1.58,0"
       transform="translate(-18.97 -19.42)"
       id="path381" />
    <path
       class="cls-19"
       d="M356.32,168.45c-.29.41.32.7.64.84a2.26,2.26,0,0,0,1,.11,1.43,1.43,0,0,0,.81-.21.69.69,0,0,0,.27-.79.9.9,0,0,0-.66-.42,3.24,3.24,0,0,0-1.12,0,1.19,1.19,0,0,0-.94.47"
       transform="translate(-18.97 -19.42)"
       id="path383" />
    <path
       class="cls-19"
       d="M360.16,168a1.84,1.84,0,0,0-.42.26c-.1.12-.27.69,0,.84a2.05,2.05,0,0,0,.9.21c.26,0,.64,0,.91,0s.26-.12.39-.25c.32-.29,0-.63-.32-.84a2.21,2.21,0,0,0-1.49-.26"
       transform="translate(-18.97 -19.42)"
       id="path385" />
    <path
       class="cls-19"
       d="M363,168.4c-.35.37.21.75.49.94a2.28,2.28,0,0,0,.92.31,1.4,1.4,0,0,0,.81,0,.7.7,0,0,0,.47-.68c0-.29-.29-.46-.53-.58a2.81,2.81,0,0,0-1.13-.28,1.18,1.18,0,0,0-1,.29"
       transform="translate(-18.97 -19.42)"
       id="path387" />
    <path
       class="cls-19"
       d="M366.89,168.92a1.6,1.6,0,0,0-.48.12c-.13.09-.46.58-.22.8a2,2,0,0,0,.79.48c.26.07.61.22.87.31s.29,0,.46-.12c.38-.2.21-.6-.08-.91a2.22,2.22,0,0,0-1.34-.68"
       transform="translate(-18.97 -19.42)"
       id="path389" />
    <path
       class="cls-19"
       d="M369.48,170.1c-.42.27,0,.77.26,1a2.3,2.3,0,0,0,.85.51,1.52,1.52,0,0,0,.81.15.7.7,0,0,0,.59-.59.88.88,0,0,0-.42-.67,3.23,3.23,0,0,0-1-.48,1.16,1.16,0,0,0-1.06.06"
       transform="translate(-18.97 -19.42)"
       id="path391" />
    <path
       class="cls-19"
       d="M373.17,171.3a2,2,0,0,0-.49.06c-.14.07-.54.5-.33.77a2.1,2.1,0,0,0,.73.58c.25.1.59.29.84.41s.3,0,.47-.07c.4-.16.27-.57,0-.91a2.31,2.31,0,0,0-1.24-.84"
       transform="translate(-18.97 -19.42)"
       id="path393" />
    <path
       class="cls-19"
       d="M375.59,172.76c-.44.23,0,.77.17,1a2.22,2.22,0,0,0,.8.59,1.51,1.51,0,0,0,.8.22.69.69,0,0,0,.63-.54.88.88,0,0,0-.35-.7,3.16,3.16,0,0,0-1-.57,1.17,1.17,0,0,0-1.06,0"
       transform="translate(-18.97 -19.42)"
       id="path395" />
    <path
       class="cls-19"
       d="M379.16,174.29a2.07,2.07,0,0,0-.49,0c-.15.05-.58.45-.4.73a2,2,0,0,0,.67.64c.23.13.56.35.78.49a.62.62,0,0,0,.48,0c.41-.11.33-.53.12-.9a2.34,2.34,0,0,0-1.16-1"
       transform="translate(-18.97 -19.42)"
       id="path397" />
    <path
       class="cls-19"
       d="M381.43,176c-.48.16-.17.76,0,1.06a2.13,2.13,0,0,0,.71.72,1.43,1.43,0,0,0,.75.34.67.67,0,0,0,.69-.45.88.88,0,0,0-.25-.75,3.2,3.2,0,0,0-.88-.71,1.15,1.15,0,0,0-1-.21"
       transform="translate(-18.97 -19.42)"
       id="path399" />
    <path
       class="cls-19"
       d="M384.7,178.05a2,2,0,0,0-.48,0c-.15,0-.63.38-.48.68a2,2,0,0,0,.6.73c.22.16.53.41.75.58s.29.05.47,0c.43-.08.37-.51.19-.89a2.42,2.42,0,0,0-1.05-1.07"
       transform="translate(-18.97 -19.42)"
       id="path401" />
    <path
       class="cls-19"
       d="M386.8,180c-.48.14-.18.75,0,1.05a2.29,2.29,0,0,0,.71.71,1.44,1.44,0,0,0,.76.35.68.68,0,0,0,.7-.45.9.9,0,0,0-.25-.74,3.15,3.15,0,0,0-.87-.71,1.17,1.17,0,0,0-1-.21"
       transform="translate(-18.97 -19.42)"
       id="path403" />
    <path
       class="cls-19"
       d="M390.08,182a2.13,2.13,0,0,0-.5,0c-.14,0-.63.37-.48.67a1.79,1.79,0,0,0,.6.72l.74.58c.12.09.29.05.48,0,.43-.08.37-.51.19-.88a2.38,2.38,0,0,0-1-1.07"
       transform="translate(-18.97 -19.42)"
       id="path405" />
    <path
       class="cls-19"
       d="M293.92,145.05c-.34.36.22.74.49.92a2.06,2.06,0,0,0,.9.34,1.55,1.55,0,0,0,.8,0,.72.72,0,0,0,.5-.67c0-.28-.27-.46-.5-.61a2.81,2.81,0,0,0-1.14-.31,1.14,1.14,0,0,0-1.05.29"
       transform="translate(-18.97 -19.42)"
       id="path407" />
    <path
       class="cls-19"
       d="M297.82,145.71a2,2,0,0,0-.49.09c-.14.07-.49.54-.27.79a2.06,2.06,0,0,0,.74.52l.82.39c.13.07.29,0,.46-.07.4-.15.28-.56,0-.91a2.24,2.24,0,0,0-1.29-.81"
       transform="translate(-18.97 -19.42)"
       id="path409" />
    <path
       class="cls-19"
       d="M300.09,147.07c-.46.21-.08.76.1,1.05a2.63,2.63,0,0,0,.73.64,1.49,1.49,0,0,0,.76.3.7.7,0,0,0,.69-.46.83.83,0,0,0-.27-.73,2.64,2.64,0,0,0-.94-.68,1.15,1.15,0,0,0-1.07-.12"
       transform="translate(-18.97 -19.42)"
       id="path411" />
    <path
       class="cls-19"
       d="M303.51,149a2.15,2.15,0,0,0-.5-.07c-.15,0-.64.36-.5.67a2.26,2.26,0,0,0,.54.73l.68.62c.11.1.28.08.46.07.43,0,.43-.46.3-.87a2.37,2.37,0,0,0-1-1.15"
       transform="translate(-18.97 -19.42)"
       id="path413" />
    <path
       class="cls-19"
       d="M305.26,151c-.5.08-.29.71-.2,1a2.12,2.12,0,0,0,.55.81,1.35,1.35,0,0,0,.63.5.69.69,0,0,0,.8-.26.87.87,0,0,0-.07-.78,2.52,2.52,0,0,0-.72-.9,1.14,1.14,0,0,0-1-.41"
       transform="translate(-18.97 -19.42)"
       id="path415" />
    <path
       class="cls-19"
       d="M308,153.75a2,2,0,0,0-.46-.2c-.15,0-.7.18-.65.51a1.82,1.82,0,0,0,.34.86c.16.21.34.55.49.77s.25.15.44.18c.43.08.53-.33.49-.75a2.16,2.16,0,0,0-.65-1.37"
       transform="translate(-18.97 -19.42)"
       id="path417" />
    <path
       class="cls-19"
       d="M309.22,156.09c-.5-.06-.46.62-.44.95a2.89,2.89,0,0,0,.28.92,1.35,1.35,0,0,0,.48.63.69.69,0,0,0,.82,0,.78.78,0,0,0,.18-.77,3.55,3.55,0,0,0-.45-1.11,1.19,1.19,0,0,0-.87-.63"
       transform="translate(-18.97 -19.42)"
       id="path419" />
    <path
       class="cls-19"
       d="M311.07,159.6a2.38,2.38,0,0,0-.38-.35c-.14-.06-.73-.07-.79.25a2.45,2.45,0,0,0,0,.9c0,.25.1.61.14.87a.67.67,0,0,0,.31.34c.34.25.64-.07.78-.47a2.38,2.38,0,0,0-.06-1.54"
       transform="translate(-18.97 -19.42)"
       id="path421" />
    <path
       class="cls-19"
       d="M311.2,162.26c-.44-.27-.67.35-.82.65a2.21,2.21,0,0,0-.16,1,2,2,0,0,0,.13.8.72.72,0,0,0,.75.36.86.86,0,0,0,.5-.62,2.88,2.88,0,0,0,.08-1.17,1.1,1.1,0,0,0-.48-1"
       transform="translate(-18.97 -19.42)"
       id="path423" />
    <path
       class="cls-19"
       d="M311.34,166.2a1.84,1.84,0,0,0-.19-.46c-.1-.11-.63-.36-.82-.09a1.73,1.73,0,0,0-.36.84c0,.26-.14.63-.2.89s.08.28.19.44c.24.35.61.14.88-.19a2.16,2.16,0,0,0,.5-1.43"
       transform="translate(-18.97 -19.42)"
       id="path425" />
    <path
       class="cls-19"
       d="M310.55,168.71c-.32-.39-.77.11-1,.36a2.49,2.49,0,0,0-.43.88,1.64,1.64,0,0,0-.09.82.68.68,0,0,0,.63.54c.28,0,.48-.24.64-.46a3.2,3.2,0,0,0,.4-1.08,1.2,1.2,0,0,0-.16-1.06"
       transform="translate(-18.97 -19.42)"
       id="path427" />
    <path
       class="cls-19"
       d="M309.6,172.51a1.85,1.85,0,0,0-.07-.5c-.07-.13-.53-.51-.78-.29a2,2,0,0,0-.55.74c-.1.25-.28.59-.4.83s0,.3.09.47c.15.4.57.27.9,0a2.25,2.25,0,0,0,.81-1.27"
       transform="translate(-18.97 -19.42)"
       id="path429" />
    <path
       class="cls-19"
       d="M308.11,174.81c.06-.23-.17-.33-.35-.45l-.07,0s0,0-.12,0-.07.11-.09.11h0l-.15.08-.24.17a2.43,2.43,0,0,0-.6.78,1.62,1.62,0,0,0-.24.79.68.68,0,0,0,.52.65.88.88,0,0,0,.71-.34,3,3,0,0,0,.6-1,2.18,2.18,0,0,0,.15-.54,1.22,1.22,0,0,0,0-.27v0h0a.53.53,0,0,1-.12.14l-.1.06v0l.05-.06a.38.38,0,0,0,.06-.13"
       transform="translate(-18.97 -19.42)"
       id="path431" />
    <path
       class="cls-19"
       d="M306.52,178.11a2.27,2.27,0,0,0,0-.49c-.05-.14-.43-.59-.72-.41a1.89,1.89,0,0,0-.66.67c-.13.23-.36.55-.5.79s0,.3,0,.47c.12.42.54.33.9.11a2.35,2.35,0,0,0,1-1.14"
       transform="translate(-18.97 -19.42)"
       id="path433" />
    <path
       class="cls-19"
       d="M305,180.18c-.19-.47-.76-.12-1.05.07a2.43,2.43,0,0,0-.65.77,1.57,1.57,0,0,0-.28.78.71.71,0,0,0,.5.67.91.91,0,0,0,.72-.31,3,3,0,0,0,.63-.94,1.14,1.14,0,0,0,.13-1"
       transform="translate(-18.97 -19.42)"
       id="path435" />
    <path
       class="cls-19"
       d="M303.2,183.62a2.14,2.14,0,0,0,0-.5c0-.14-.43-.6-.72-.42a2,2,0,0,0-.67.65l-.52.79c-.08.13,0,.3,0,.48.12.42.54.33.9.12a2.4,2.4,0,0,0,1-1.12"
       transform="translate(-18.97 -19.42)"
       id="path437" />
    <path
       class="cls-19"
       d="M301.6,185.65c-.18-.47-.76-.12-1.05.07a2.32,2.32,0,0,0-.66.76,1.53,1.53,0,0,0-.28.78.69.69,0,0,0,.5.67.86.86,0,0,0,.71-.31,3.14,3.14,0,0,0,.65-.92,1.19,1.19,0,0,0,.13-1"
       transform="translate(-18.97 -19.42)"
       id="path439" />
    <path
       class="cls-19"
       d="M299.83,189.08a2,2,0,0,0,0-.5c0-.14-.41-.6-.71-.43a1.91,1.91,0,0,0-.67.66l-.52.78a.62.62,0,0,0,0,.48c.11.42.53.33.9.12a2.38,2.38,0,0,0,1-1.11"
       transform="translate(-18.97 -19.42)"
       id="path441" />
    <path
       class="cls-19"
       d="M298.23,191.11c-.19-.47-.77-.13-1.05.06a2.29,2.29,0,0,0-.66.76,1.52,1.52,0,0,0-.29.79.69.69,0,0,0,.51.66.85.85,0,0,0,.71-.3,3.15,3.15,0,0,0,.64-.93,1.17,1.17,0,0,0,.14-1"
       transform="translate(-18.97 -19.42)"
       id="path443" />
    <path
       class="cls-19"
       d="M296.46,194.53a2.06,2.06,0,0,0,0-.49c-.05-.14-.43-.6-.72-.43a2.1,2.1,0,0,0-.67.66l-.51.8a.62.62,0,0,0,0,.48c.12.41.54.32.9.11a2.35,2.35,0,0,0,1-1.13"
       transform="translate(-18.97 -19.42)"
       id="path445" />
    <path
       class="cls-19"
       d="M252.51,181.88c.41.28.7-.34.84-.65a2.18,2.18,0,0,0,.13-1,1.49,1.49,0,0,0-.2-.8.72.72,0,0,0-.78-.31.84.84,0,0,0-.43.65,3.12,3.12,0,0,0,0,1.14,1.13,1.13,0,0,0,.46.95"
       transform="translate(-18.97 -19.42)"
       id="path447" />
    <path
       class="cls-19"
       d="M252.18,178a1.86,1.86,0,0,0,.23.43c.11.11.66.31.84,0a2,2,0,0,0,.27-.89c0-.26,0-.65.06-.92s-.12-.27-.24-.41c-.27-.32-.65-.06-.85.3a2.43,2.43,0,0,0-.31,1.47"
       transform="translate(-18.97 -19.42)"
       id="path449" />
    <path
       class="cls-19"
       d="M252.63,175.6c.36.34.74-.22.93-.5a2.26,2.26,0,0,0,.27-.95,1.89,1.89,0,0,0,0-.82.7.7,0,0,0-.71-.43c-.28,0-.45.32-.57.56a3.28,3.28,0,0,0-.2,1.13,1.18,1.18,0,0,0,.32,1"
       transform="translate(-18.97 -19.42)"
       id="path451" />
    <path
       class="cls-19"
       d="M253,171.71a1.71,1.71,0,0,0,.16.47c.09.13.6.42.82.16a1.81,1.81,0,0,0,.4-.82,7,7,0,0,1,.26-.89c0-.14-.06-.28-.16-.44-.22-.37-.6-.17-.9.13a2.08,2.08,0,0,0-.58,1.39"
       transform="translate(-18.97 -19.42)"
       id="path453" />
    <path
       class="cls-19"
       d="M253.84,169.44c.3.4.76-.08,1-.33a2.79,2.79,0,0,0,.46-.87,1.39,1.39,0,0,0,.13-.8.71.71,0,0,0-.62-.57.9.9,0,0,0-.65.44,3.33,3.33,0,0,0-.45,1.06,1.19,1.19,0,0,0,.14,1.07"
       transform="translate(-18.97 -19.42)"
       id="path455" />
    <path
       class="cls-19"
       d="M254.9,165.68a2.12,2.12,0,0,0,0,.49c.07.13.51.52.77.31a1.91,1.91,0,0,0,.59-.71l.41-.82c.07-.14,0-.3-.07-.47-.13-.4-.57-.3-.89,0a2.37,2.37,0,0,0-.86,1.25"
       transform="translate(-18.97 -19.42)"
       id="path457" />
    <path
       class="cls-19"
       d="M256.24,163.63c.2.45.77.08,1-.11a2.2,2.2,0,0,0,.62-.77,1.49,1.49,0,0,0,.3-.76.69.69,0,0,0-.48-.67.86.86,0,0,0-.74.29,2.46,2.46,0,0,0-.64.95,1.2,1.2,0,0,0-.1,1.07"
       transform="translate(-18.97 -19.42)"
       id="path459" />
    <path
       class="cls-19"
       d="M258.05,160.16a1.67,1.67,0,0,0,0,.5c0,.15.4.63.69.47a2.09,2.09,0,0,0,.71-.59l.58-.71c.1-.12.06-.29,0-.47-.06-.44-.49-.41-.87-.23a2.4,2.4,0,0,0-1.1,1"
       transform="translate(-18.97 -19.42)"
       id="path461" />
    <path
       class="cls-19"
       d="M259.78,158.43c.11.49.74.24,1.05.11a2.2,2.2,0,0,0,.76-.63,1.46,1.46,0,0,0,.44-.68.69.69,0,0,0-.34-.76.89.89,0,0,0-.78.14,2.61,2.61,0,0,0-.82.8,1.19,1.19,0,0,0-.31,1"
       transform="translate(-18.97 -19.42)"
       id="path463" />
    <path
       class="cls-19"
       d="M262.25,155.41a1.56,1.56,0,0,0-.14.47c0,.16.26.69.58.6a2.08,2.08,0,0,0,.82-.44l.7-.59a.68.68,0,0,0,.12-.46c0-.42-.4-.49-.81-.39a2.4,2.4,0,0,0-1.27.81"
       transform="translate(-18.97 -19.42)"
       id="path465" />
    <path
       class="cls-19"
       d="M264.27,154c0,.5.68.37,1,.29a2.7,2.7,0,0,0,.87-.46,1.41,1.41,0,0,0,.55-.61.69.69,0,0,0-.2-.81.86.86,0,0,0-.78,0,2.91,2.91,0,0,0-1,.63,1.21,1.21,0,0,0-.49.95"
       transform="translate(-18.97 -19.42)"
       id="path467" />
    <path
       class="cls-19"
       d="M267.25,151.51a1.89,1.89,0,0,0-.22.45c0,.15.13.72.46.69a1.92,1.92,0,0,0,.88-.3c.22-.15.57-.31.81-.45s.15-.25.2-.43c.09-.43-.32-.55-.74-.53a2.24,2.24,0,0,0-1.39.57"
       transform="translate(-18.97 -19.42)"
       id="path469" />
    <path
       class="cls-19"
       d="M269.47,150.51c-.07.5.6.47.95.46a2.4,2.4,0,0,0,.93-.32,1.61,1.61,0,0,0,.64-.51.69.69,0,0,0-.06-.83.9.9,0,0,0-.78-.13,3.08,3.08,0,0,0-1,.48,1.16,1.16,0,0,0-.64.85"
       transform="translate(-18.97 -19.42)"
       id="path471" />
    <path
       class="cls-19"
       d="M272.8,148.49a1.53,1.53,0,0,0-.28.41c0,.14,0,.73.35.75a2.11,2.11,0,0,0,.92-.16l.86-.34c.14-.06.19-.22.26-.39.16-.4-.23-.59-.65-.63a2.33,2.33,0,0,0-1.46.36"
       transform="translate(-18.97 -19.42)"
       id="path473" />
    <path
       class="cls-19"
       d="M275.14,147.83c-.13.49.54.56.87.59a2.53,2.53,0,0,0,1-.17,1.51,1.51,0,0,0,.71-.42.69.69,0,0,0,.05-.83.85.85,0,0,0-.75-.23,3.29,3.29,0,0,0-1.1.31,1.21,1.21,0,0,0-.76.75"
       transform="translate(-18.97 -19.42)"
       id="path475" />
    <path
       class="cls-19"
       d="M278.74,146.32a1.89,1.89,0,0,0-.34.37c-.07.14-.09.72.24.79a1.87,1.87,0,0,0,.93,0l.9-.2c.15,0,.22-.19.31-.35.22-.38-.14-.62-.55-.72a2.28,2.28,0,0,0-1.49.14"
       transform="translate(-18.97 -19.42)"
       id="path477" />
    <path
       class="cls-19"
       d="M281.15,146c-.21.45.45.63.78.71a2.17,2.17,0,0,0,1,0,1.41,1.41,0,0,0,.77-.3.71.71,0,0,0,.17-.82.88.88,0,0,0-.71-.33,2.72,2.72,0,0,0-1.13.15,1.2,1.2,0,0,0-.86.63"
       transform="translate(-18.97 -19.42)"
       id="path479" />
    <path
       class="cls-19"
       d="M284.92,145a2,2,0,0,0-.39.31c-.08.12-.19.7.13.82a1.85,1.85,0,0,0,.92.1c.26,0,.65,0,.92-.07s.25-.16.37-.3c.26-.35-.06-.63-.45-.79a2.22,2.22,0,0,0-1.5-.07"
       transform="translate(-18.97 -19.42)"
       id="path481" />
    <path
       class="cls-19"
       d="M287.36,145.06c-.27.42.35.7.66.82a2.22,2.22,0,0,0,1,.1,1.5,1.5,0,0,0,.8-.19.7.7,0,0,0,.28-.78.82.82,0,0,0-.65-.43,2.78,2.78,0,0,0-1.15,0,1.17,1.17,0,0,0-.93.49"
       transform="translate(-18.97 -19.42)"
       id="path483" />
    <path
       class="cls-19"
       d="M291.22,144.63a2.12,2.12,0,0,0-.42.26c-.1.11-.29.67,0,.83a1.93,1.93,0,0,0,.9.23c.26,0,.65.05.92.06s.27-.12.4-.25c.31-.31,0-.63-.33-.85a2.3,2.3,0,0,0-1.48-.28"
       transform="translate(-18.97 -19.42)"
       id="path485" />
    <path
       class="cls-19"
       d="M331.73,330.87c-.24-.44-.77,0-1,.2a2.15,2.15,0,0,0-.56.8,1.46,1.46,0,0,0-.23.79.7.7,0,0,0,.54.63.84.84,0,0,0,.7-.35,2.92,2.92,0,0,0,.57-1,1.16,1.16,0,0,0,0-1.07"
       transform="translate(-18.97 -19.42)"
       id="path487" />
    <path
       class="cls-19"
       d="M330.19,334.46a2.06,2.06,0,0,0,0-.49c-.05-.15-.44-.59-.72-.42a2,2,0,0,0-.67.65c-.14.22-.37.52-.52.75s0,.29,0,.47c.09.42.51.36.89.17a2.25,2.25,0,0,0,1-1.13"
       transform="translate(-18.97 -19.42)"
       id="path489" />
    <path
       class="cls-19"
       d="M328.61,336.31c-.14-.48-.75-.18-1.05,0a2.39,2.39,0,0,0-.72.66,1.39,1.39,0,0,0-.39.71.68.68,0,0,0,.37.74.85.85,0,0,0,.77-.18,2.92,2.92,0,0,0,.78-.86,1.17,1.17,0,0,0,.24-1"
       transform="translate(-18.97 -19.42)"
       id="path491" />
    <path
       class="cls-19"
       d="M326.28,339.47a1.93,1.93,0,0,0,.13-.48c0-.16-.28-.68-.6-.58a2,2,0,0,0-.79.45c-.19.17-.49.39-.69.56s-.12.25-.14.44c0,.42.37.51.8.43a2.15,2.15,0,0,0,1.29-.82"
       transform="translate(-18.97 -19.42)"
       id="path493" />
    <path
       class="cls-19"
       d="M324.2,340.8c0-.5-.63-.43-1-.43a2.47,2.47,0,0,0-.91.28,1.74,1.74,0,0,0-.66.47.72.72,0,0,0,0,.84.92.92,0,0,0,.78.17,2.92,2.92,0,0,0,1.08-.45,1.12,1.12,0,0,0,.66-.88"
       transform="translate(-18.97 -19.42)"
       id="path495" />
    <path
       class="cls-19"
       d="M320.74,342.7a2.22,2.22,0,0,0,.32-.38c.05-.15,0-.73-.29-.78a2.13,2.13,0,0,0-.92.07l-.89.26c-.15,0-.21.2-.3.36-.19.39.17.61.59.7a2.35,2.35,0,0,0,1.49-.23"
       transform="translate(-18.97 -19.42)"
       id="path497" />
    <path
       class="cls-19"
       d="M318.36,343.13c.18-.47-.48-.6-.81-.67a2.38,2.38,0,0,0-1,.08,1.47,1.47,0,0,0-.75.34.72.72,0,0,0-.13.83.87.87,0,0,0,.72.3,2.91,2.91,0,0,0,1.13-.21,1.16,1.16,0,0,0,.83-.67"
       transform="translate(-18.97 -19.42)"
       id="path499" />
    <path
       class="cls-19"
       d="M314.64,344.29A2.31,2.31,0,0,0,315,344c.08-.13.15-.72-.17-.82a2,2,0,0,0-.92-.06l-.92.12c-.15,0-.24.17-.35.33-.25.35.09.62.49.76a2.27,2.27,0,0,0,1.5,0"
       transform="translate(-18.97 -19.42)"
       id="path501" />
    <path
       class="cls-19"
       d="M312.22,344.37c.25-.44-.38-.66-.7-.77a2.08,2.08,0,0,0-1-.06,1.58,1.58,0,0,0-.79.23.71.71,0,0,0-.25.8.91.91,0,0,0,.68.4,2.93,2.93,0,0,0,1.14-.05,1.15,1.15,0,0,0,.91-.55"
       transform="translate(-18.97 -19.42)"
       id="path503" />
    <path
       class="cls-19"
       d="M308.37,345a1.84,1.84,0,0,0,.42-.26c.1-.12.26-.68,0-.83a1.8,1.8,0,0,0-.9-.21c-.27,0-.65,0-.92,0s-.26.13-.39.26c-.31.31,0,.64.34.84a2.25,2.25,0,0,0,1.49.23"
       transform="translate(-18.97 -19.42)"
       id="path505" />
    <path
       class="cls-19"
       d="M306,344.67c.31-.39-.27-.73-.57-.88a2.33,2.33,0,0,0-1-.22,1.52,1.52,0,0,0-.82.11.68.68,0,0,0-.36.75c.07.27.35.41.6.5a3.08,3.08,0,0,0,1.13.13,1.2,1.2,0,0,0,1-.39"
       transform="translate(-18.97 -19.42)"
       id="path507" />
    <path
       class="cls-19"
       d="M302.08,344.69a1.92,1.92,0,0,0,.45-.21c.11-.11.35-.65.07-.83a1.94,1.94,0,0,0-.87-.32c-.27,0-.65-.1-.92-.14s-.28.1-.43.22c-.33.27-.08.62.26.87a2.34,2.34,0,0,0,1.44.41"
       transform="translate(-18.97 -19.42)"
       id="path509" />
    <path
       class="cls-19"
       d="M299.74,344.11c.36-.35-.19-.75-.47-.94a2.42,2.42,0,0,0-.95-.31,1.52,1.52,0,0,0-.82,0,.66.66,0,0,0-.44.7.85.85,0,0,0,.55.56,3,3,0,0,0,1.11.24,1.16,1.16,0,0,0,1-.29"
       transform="translate(-18.97 -19.42)"
       id="path511" />
    <path
       class="cls-19"
       d="M295.88,343.75a1.85,1.85,0,0,0,.47-.16c.11-.1.41-.61.14-.82a1.81,1.81,0,0,0-.84-.4c-.26-.05-.64-.16-.91-.22s-.29.08-.44.18c-.36.25-.14.62.19.89a2.27,2.27,0,0,0,1.39.53"
       transform="translate(-18.97 -19.42)"
       id="path513" />
    <path
       class="cls-19"
       d="M293.61,343c.38-.33-.14-.76-.41-1a2.24,2.24,0,0,0-.93-.38,1.56,1.56,0,0,0-.83,0,.7.7,0,0,0-.47.69c0,.28.28.45.52.58a3.06,3.06,0,0,0,1.08.31,1.2,1.2,0,0,0,1-.21"
       transform="translate(-18.97 -19.42)"
       id="path515" />
    <path
       class="cls-19"
       d="M289.79,342.4a2,2,0,0,0,.47-.15c.12-.09.43-.59.18-.81a2.07,2.07,0,0,0-.84-.44l-.91-.23c-.16,0-.3.07-.45.17-.36.24-.14.62.18.89a2.37,2.37,0,0,0,1.37.57"
       transform="translate(-18.97 -19.42)"
       id="path517" />
    <path
       class="cls-19"
       d="M287.29,341.5c.44-.25,0-.78-.19-1a2.55,2.55,0,0,0-.82-.56,1.51,1.51,0,0,0-.8-.2.69.69,0,0,0-.62.55.84.84,0,0,0,.37.69,3.07,3.07,0,0,0,1,.55,1.2,1.2,0,0,0,1.06,0"
       transform="translate(-18.97 -19.42)"
       id="path519" />
    <path
       class="cls-19"
       d="M283.67,340a1.65,1.65,0,0,0,.51,0c.14-.05.57-.44.4-.72a2.06,2.06,0,0,0-.63-.65c-.21-.14-.48-.37-.68-.53s-.27-.06-.45,0c-.42,0-.44.47-.26.87a2.07,2.07,0,0,0,1.11,1.07"
       transform="translate(-18.97 -19.42)"
       id="path521" />
    <path
       class="cls-19"
       d="M281.9,338.27c.5-.07.31-.71.23-1a2.33,2.33,0,0,0-.47-.84c-.16-.21-.38-.47-.56-.5a.75.75,0,0,0-.82.09.56.56,0,0,0-.15.38,2.25,2.25,0,0,0,.12.48,3,3,0,0,0,.66.95,1.15,1.15,0,0,0,1,.46"
       transform="translate(-18.97 -19.42)"
       id="path523" />
    <path
       class="cls-19"
       d="M279.49,335.09a2.07,2.07,0,0,0,.4.3c.14.05.73,0,.76-.33a1.92,1.92,0,0,0-.12-.92c-.09-.25-.23-.62-.32-.88s-.23-.2-.4-.27c-.4-.16-.58.23-.63.64a2.31,2.31,0,0,0,.31,1.46"
       transform="translate(-18.97 -19.42)"
       id="path525" />
    <path
       class="cls-19"
       d="M278.89,332.78c.49.14.56-.53.58-.88a2.23,2.23,0,0,0-.22-1,1.59,1.59,0,0,0-.46-.7.7.7,0,0,0-.84,0,.86.86,0,0,0-.17.76,2.84,2.84,0,0,0,.36,1.06c.17.33.36.65.75.73"
       transform="translate(-18.97 -19.42)"
       id="path527" />
    <path
       class="cls-19"
       d="M277.18,329.34a2.36,2.36,0,0,0,.4.29c.14.05.73,0,.76-.33a1.92,1.92,0,0,0-.14-.93c-.11-.26-.26-.63-.36-.89s-.24-.19-.42-.25c-.41-.14-.57.27-.6.68a2.44,2.44,0,0,0,.36,1.43"
       transform="translate(-18.97 -19.42)"
       id="path529" />
    <path
       class="cls-19"
       d="M276.49,327.08c.5.1.52-.57.51-.92a2.35,2.35,0,0,0-.34-1,1.59,1.59,0,0,0-.59-.64.7.7,0,0,0-.82.16.92.92,0,0,0,0,.78,3.72,3.72,0,0,0,.47,1,1.19,1.19,0,0,0,.81.64"
       transform="translate(-18.97 -19.42)"
       id="path531" />
    <path
       class="cls-19"
       d="M274.33,324a2,2,0,0,0,.44.21c.15,0,.72-.13.69-.46a2,2,0,0,0-.31-.89l-.51-.8c-.08-.13-.26-.15-.44-.18-.43-.07-.52.35-.48.77a2.31,2.31,0,0,0,.61,1.35"
       transform="translate(-18.97 -19.42)"
       id="path533" />
    <path
       class="cls-19"
       d="M273.26,321.85c.5,0,.42-.65.37-1a2.46,2.46,0,0,0-.43-.91,1.59,1.59,0,0,0-.6-.58.69.69,0,0,0-.81.19.83.83,0,0,0,0,.78,2.87,2.87,0,0,0,.58,1,1.18,1.18,0,0,0,.9.55"
       transform="translate(-18.97 -19.42)"
       id="path535" />
    <path
       class="cls-19"
       d="M270.84,318.85a2,2,0,0,0,.45.2c.15,0,.72-.14.68-.48a1.9,1.9,0,0,0-.34-.88l-.54-.79c-.1-.13-.27-.14-.46-.17-.44,0-.49.39-.44.8a2.4,2.4,0,0,0,.65,1.32"
       transform="translate(-18.97 -19.42)"
       id="path537" />
    <path
       class="cls-19"
       d="M331.6,330.09c.36.35.75-.2.93-.49a2.36,2.36,0,0,0,.28-1,1.51,1.51,0,0,0-.09-.84.68.68,0,0,0-.74-.37c-.28.07-.41.34-.51.58a3.43,3.43,0,0,0-.18,1.1,1.17,1.17,0,0,0,.31,1"
       transform="translate(-18.97 -19.42)"
       id="path539" />
    <path
       class="cls-19"
       d="M331.71,326.27a2.25,2.25,0,0,0,.22.43c.1.11.64.35.83.06a2,2,0,0,0,.29-.91c0-.27.05-.67.08-1s-.13-.28-.26-.41c-.32-.31-.63,0-.84.34a2.3,2.3,0,0,0-.32,1.44"
       transform="translate(-18.97 -19.42)"
       id="path541" />
    <path
       class="cls-19"
       d="M332.09,323.69c.4.3.72-.3.87-.62a2.33,2.33,0,0,0,.11-1,1.38,1.38,0,0,0-.23-.82A.68.68,0,0,0,332,321a.89.89,0,0,0-.38.66,3.13,3.13,0,0,0,0,1.1,1.22,1.22,0,0,0,.44.93"
       transform="translate(-18.97 -19.42)"
       id="path543" />
    <path
       class="cls-19"
       d="M331.51,320a2.16,2.16,0,0,0,.32.36c.14.07.71.19.83-.13a2.1,2.1,0,0,0,0-1c0-.27-.14-.68-.21-1s-.21-.24-.37-.32c-.39-.2-.59.19-.7.59a2.59,2.59,0,0,0-.05.74,1.68,1.68,0,0,0,.13.7"
       transform="translate(-18.97 -19.42)"
       id="path545" />
    <path
       class="cls-19"
       d="M331.13,317.45c.47.14.58-.54.57-.89a2.26,2.26,0,0,0-.29-1,1.51,1.51,0,0,0-.56-.66.67.67,0,0,0-.82.12.94.94,0,0,0-.09.77,4.29,4.29,0,0,0,.43,1,1.27,1.27,0,0,0,.76.69"
       transform="translate(-18.97 -19.42)"
       id="path547" />
    <path
       class="cls-19"
       d="M329.13,314.28a2.57,2.57,0,0,0,.43.21c.15,0,.73-.12.7-.46a1.79,1.79,0,0,0-.33-.9c-.16-.23-.37-.58-.53-.8s-.28-.14-.46-.16c-.43-.06-.5.37-.45.78a2.52,2.52,0,0,0,.64,1.33"
       transform="translate(-18.97 -19.42)"
       id="path549" />
    <path
       class="cls-19"
       d="M327.84,312c.51,0,.39-.67.32-1a2.52,2.52,0,0,0-.48-.88,1.55,1.55,0,0,0-.63-.54.72.72,0,0,0-.8.22.85.85,0,0,0,0,.79,2.93,2.93,0,0,0,.64.92,1.17,1.17,0,0,0,.92.5"
       transform="translate(-18.97 -19.42)"
       id="path551" />
    <path
       class="cls-19"
       d="M325.31,309a2.07,2.07,0,0,0,.44.23c.16,0,.73-.13.7-.46a1.9,1.9,0,0,0-.28-.88l-.46-.83c-.08-.13-.26-.16-.44-.2-.43-.08-.53.34-.51.75a2.33,2.33,0,0,0,.55,1.39"
       transform="translate(-18.97 -19.42)"
       id="path553" />
    <path
       class="cls-19"
       d="M324.18,306.67c.51,0,.43-.65.35-1a2.13,2.13,0,0,0-.54-.91,1.47,1.47,0,0,0-.71-.52.68.68,0,0,0-.76.35.87.87,0,0,0,.12.75,3.51,3.51,0,0,0,.65.84,1.19,1.19,0,0,0,.89.48"
       transform="translate(-18.97 -19.42)"
       id="path555" />
    <path
       class="cls-19"
       d="M321.46,304.17a2.23,2.23,0,0,0,.47.06c.14,0,.66-.32.53-.64a1.73,1.73,0,0,0-.62-.77,9.55,9.55,0,0,0-.8-.57.6.6,0,0,0-.49,0c-.42.11-.31.54-.12.9a2.56,2.56,0,0,0,1,1"
       transform="translate(-18.97 -19.42)"
       id="path557" />
    <path
       class="cls-19"
       d="M319.48,302.56c.45-.21.08-.79-.15-1.05a2.42,2.42,0,0,0-.86-.58,1.54,1.54,0,0,0-.84-.16.67.67,0,0,0-.57.6.91.91,0,0,0,.41.66,3.69,3.69,0,0,0,1,.49,1.26,1.26,0,0,0,1,0"
       transform="translate(-18.97 -19.42)"
       id="path559" />
    <path
       class="cls-19"
       d="M315.9,301.35a2.74,2.74,0,0,0,.47-.11c.13-.07.5-.53.27-.79a2,2,0,0,0-.82-.51c-.27-.08-.65-.22-.93-.28s-.3.06-.46.16c-.37.24-.14.61.16.89a2.56,2.56,0,0,0,1.31.64"
       transform="translate(-18.97 -19.42)"
       id="path561" />
    <path
       class="cls-19"
       d="M313.49,300.42c.38-.34-.15-.77-.44-1a2.19,2.19,0,0,0-1-.32,1.5,1.5,0,0,0-.84.05.68.68,0,0,0-.4.73c.06.27.32.42.56.53a2.91,2.91,0,0,0,1.09.22,1.16,1.16,0,0,0,1-.25"
       transform="translate(-18.97 -19.42)"
       id="path563" />
    <path
       class="cls-19"
       d="M309.67,300.13a2,2,0,0,0,.45-.2c.12-.1.39-.62.11-.82a2.06,2.06,0,0,0-.86-.36c-.27,0-.65-.12-.92-.17s-.28.09-.43.2c-.34.26-.11.62.23.88a2.33,2.33,0,0,0,1.42.47"
       transform="translate(-18.97 -19.42)"
       id="path565" />
    <path
       class="cls-19"
       d="M307.11,299.41c.37-.34-.15-.76-.42-1a2.18,2.18,0,0,0-.92-.37,1.53,1.53,0,0,0-.82,0,.7.7,0,0,0-.49.67c0,.28.28.46.51.6a3,3,0,0,0,1.1.32,1.16,1.16,0,0,0,1-.23"
       transform="translate(-18.97 -19.42)"
       id="path567" />
    <path
       class="cls-19"
       d="M303.27,298.77a2.43,2.43,0,0,0,.48-.13c.13-.08.46-.56.22-.8a2,2,0,0,0-.8-.48c-.25-.06-.61-.22-.87-.31s-.29.05-.46.13c-.38.21-.2.6.09.91a2.31,2.31,0,0,0,1.34.68"
       transform="translate(-18.97 -19.42)"
       id="path569" />
    <path
       class="cls-17"
       d="M339.9,279.32c-.46-2.86-.27-13.49,3.58-19.62,2.26-3.59,8.75-8.7,11.3-9.45.85-.25,2.84-1.22,2.22,0s-3.67,2.77-5.53,4.16c-3.75,2.81-6.62,6.2-7.25,7.88s.36,3.69-.23,5.78a19.29,19.29,0,0,1-2.19,4.07c-1.84,2.81.37,9.81,0,11.34C341.3,285.2,339.9,279.3,339.9,279.32Z"
       transform="translate(-18.97 -19.42)"
       id="glomerular_capillary_endothelium_1" />
    <path
       class="cls-17"
       d="M347.92,221.1c-6.05.42-9.33-.38-15.34-2.14a35.82,35.82,0,0,1-4.92-1.73c-3.68-1.68-9.83-6.27-10.34-9-.11-.62.67-.35,1.15-.26a7.17,7.17,0,0,1,2.21,1.5l3.89,3.4a3.35,3.35,0,0,0,1.08.72,7.93,7.93,0,0,0,2.19.14c2.05.11,3.52,1.66,5.22,2.66a21.14,21.14,0,0,0,5,1.82c5.57,1.59,9.61.59,15.14.21C354.05,218.35,352.3,220.8,347.92,221.1Z"
       transform="translate(-18.97 -19.42)"
       id="glomerular_capillary_endothelium_2" />
    <path
       class="cls-17"
       d="M175.7,349.13c-.11.56-.3,1.21-.82,1.42-.36.14-.41.1-.65-.41s.05-1.09,0-1.65.09-1.32.11-1.87a12.84,12.84,0,0,1,.32-2.6,6.77,6.77,0,0,0-.13-3.8,5,5,0,0,1,.15-2.26c.47-1.61,1-1.44,1.36-2.07a9.45,9.45,0,0,0,.69-1.76c.21-.84.21-.73.47-1.57a33.28,33.28,0,0,0,.75-4.15c.14-.53.41-1.54.86-1.6s.5.4.53.58a9.08,9.08,0,0,1-.11,2.85c-.7,4-1.36,7.95-2.26,11.88a17.59,17.59,0,0,0-.38,2c-.06.65-.1,1.51-.22,2.15a18.74,18.74,0,0,1-.69,2.89"
       transform="translate(-18.97 -19.42)"
       id="renal_efferent_arteriole_15" />
    <path
       class="cls-17"
       d="M180,324.82c-.13.55-.33,1.19-.85,1.39-.36.13-.42.09-.65-.43s.08-1.09.06-1.64.12-1.32.15-1.88a13.68,13.68,0,0,1,.45-2.58,7.05,7.05,0,0,0,.06-3.83,4.83,4.83,0,0,1,.33-2.25c.6-1.59,1.12-1.36,1.52-2a12.83,12.83,0,0,0,.87-1.69,16.24,16.24,0,0,1,.64-1.51,11.47,11.47,0,0,0,.77-2.29,12.43,12.43,0,0,1,.54-1.71c.22-.5.65-1.45,1.11-1.44s.42.49.43.66a8.34,8.34,0,0,1-.57,2.76c-.56,1.9-1.15,3.8-1.69,5.72s-1.08,3.84-1.62,5.78a16,16,0,0,0-.47,2c-.09.64-.17,1.49-.32,2.12a21.59,21.59,0,0,1-.77,2.85"
       transform="translate(-18.97 -19.42)"
       id="renal_efferent_arteriole_14" />
    <path
       class="cls-17"
       d="M186.46,301.27c-.26.49-.55,1.09-1.09,1.18-.37.07-.42,0-.57-.53s.29-1.06.4-1.6.42-1.26.58-1.8a8.32,8.32,0,0,1,1-2.42,7.48,7.48,0,0,0,1.2-3.69,5.14,5.14,0,0,1,1.11-2.05c1.15-1.29,1.51-.92,2.15-1.3a9.69,9.69,0,0,0,1.5-1.19c.61-.62.55-.53,1.2-1.12,1.69-1.38,2-2.06,3-2.93.4-.38,1.28-.95,1.68-.71s.12.62,0,.77A10.91,10.91,0,0,1,197,286a46.9,46.9,0,0,0-3.93,4.29c-.62.75-1.14,1.58-1.73,2.35l-.87,1.18c-.29.39-.52.82-.79,1.23a14.67,14.67,0,0,0-1,1.71l-.43,1c-.13.34-.25.69-.39,1a19,19,0,0,1-1.36,2.55"
       transform="translate(-18.97 -19.42)"
       id="renal_efferent_arteriole_13" />
    <path
       class="cls-17"
       d="M200.82,282.4a1.67,1.67,0,0,1-1.53.46c-.36-.13-.38-.19-.21-.73s.77-.77,1.13-1.2a7.05,7.05,0,0,1,.67-.67c.26-.22.54-.4.75-.59a13.38,13.38,0,0,1,2.16-1.5c.5-.31.88-.57,1.18-.8a5.33,5.33,0,0,0,.75-.58c.39-.37.61-.71,1-1.14a5,5,0,0,1,1.93-1.27c1.6-.59,1.77,0,2.49-.1a10,10,0,0,0,1.86-.42,15.79,15.79,0,0,1,1.57-.45c2.11-.55,2.67-1.07,4-1.39.54-.11,1.57-.32,1.81.09s-.16.61-.3.71a9.89,9.89,0,0,1-2.5,1.17c-3.66,1.27-7.26,3.09-10.83,4.74a7.89,7.89,0,0,0-1.73,1c-.52.38-1.17.92-1.71,1.24-1.44.84-1.51.93-2.47,1.48"
       transform="translate(-18.97 -19.42)"
       id="renal_efferent_arteriole_12" />
    <path
       class="cls-17"
       d="M222.56,272.44a1.77,1.77,0,0,1-1.56-.29c-.25-.28-.25-.34.14-.76s1-.33,1.56-.53a14.72,14.72,0,0,1,1.86-.42,9.25,9.25,0,0,1,2.64-.23,8.32,8.32,0,0,0,3.83-.61,4.83,4.83,0,0,1,2.33,0,3.28,3.28,0,0,1,.7.24,2.36,2.36,0,0,1,.43.24,2,2,0,0,1,.47.44,4,4,0,0,0,.57.75,11.84,11.84,0,0,0,1.6,1,14.48,14.48,0,0,1,1.42.82c1.85,1.16,2.66,1.13,3.71,2,.44.34,1.18,1.08,1,1.5s-.59.22-.75.17a19.27,19.27,0,0,1-2.3-1.09c-1.69-.85-3.57-1.67-5.35-2.37-.45-.17-.9-.34-1.31-.47a5.42,5.42,0,0,0-.53-.14l-.69-.1c-1-.14-1.95-.25-2.92-.36a10,10,0,0,0-2-.09c-.63,0-1.44.17-2.06.18-1.63.1-1.73.12-2.83.12"
       transform="translate(-18.97 -19.42)"
       id="renal_efferent_arteriole_11" />
    <path
       class="cls-17"
       d="M244.07,278.6a1.76,1.76,0,0,1-.51-1.45c.1-.36.16-.4.71-.29s.82.73,1.25,1.09a12.19,12.19,0,0,1,1.23,1.46,12.72,12.72,0,0,1,1.47,2.17,7.4,7.4,0,0,0,2.57,2.85,4.71,4.71,0,0,1,1.31,1.88c.61,1.61.07,1.78.16,2.51a10.65,10.65,0,0,0,.46,1.85,13,13,0,0,1,.48,1.57c.58,2.1,1.13,2.64,1.48,3.94.12.53.38,1.55,0,1.81s-.62-.13-.73-.27a9.55,9.55,0,0,1-1.25-2.48,103.91,103.91,0,0,0-5-10.73,13.72,13.72,0,0,0-1-1.74c-.37-.53-.9-1.2-1.23-1.77l-.83-1.4-.57-1"
       transform="translate(-18.97 -19.42)"
       id="renal_efferent_arteriole_10" />
    <path
       class="cls-17"
       d="M254.46,300.24a1.8,1.8,0,0,1,.19-1.58c.27-.28.33-.27.77.09s.38,1,.62,1.53.45,1.23.66,1.72c.53.93.61,1.27,1.16,2.2a4.37,4.37,0,0,0,1.52,1.61,5.41,5.41,0,0,0,1.31.51,5.47,5.47,0,0,1,1.79,1.13c1.18,1.08.84,1.5,1.26,2.08a9.36,9.36,0,0,0,1.34,1.33,11.42,11.42,0,0,1,1.24,1.08c1.57,1.5,2.32,1.71,3.16,2.76.37.41.89,1.33.61,1.68s-.63.08-.77,0-.3-.21-.45-.33-.34-.24-.51-.38l-1-.91c-2.7-2.47-6.67-4.09-9.59-7.53a6.8,6.8,0,0,1-.69-.89c-.22-.31-.47-.59-.68-.91l-.7-1a8.51,8.51,0,0,1-.53-1.11,5.82,5.82,0,0,1-.35-1.1l-.17-.74a10,10,0,0,1-.16-1.26"
       transform="translate(-18.97 -19.42)"
       id="renal_efferent_arteriole_9" />
    <path
       class="cls-17"
       d="M299.57,296.1c.56.21,1.19.51,1.32,1.06.08.38,0,.43-.53.58s-1.1-.25-1.68-.32-1.33-.33-1.89-.45a13.74,13.74,0,0,1-2.6-.82,7.55,7.55,0,0,0-3.91-.66,5.25,5.25,0,0,1-2.27-.65c-1.54-.86-1.25-1.33-1.81-1.83a10,10,0,0,0-1.62-1.12c-.79-.43-.68-.4-1.46-.88-1.92-1.21-2.72-1.23-3.91-1.95-.49-.28-1.4-.88-1.32-1.34s.55-.34.73-.31a10.14,10.14,0,0,1,2.75,1c3.69,1.82,7.52,3.4,11.32,5.09a17.23,17.23,0,0,0,1.95.78c.64.19,1.51.39,2.14.63a21.88,21.88,0,0,1,2.82,1.21"
       transform="translate(-18.97 -19.42)"
       id="renal_efferent_arteriole_8" />
    <path
       class="cls-17"
       d="M276.34,286c.49.31,1,.73,1.06,1.29,0,.38,0,.42-.62.46s-1-.46-1.59-.65a17.89,17.89,0,0,1-1.75-.88,11.86,11.86,0,0,1-2.32-1.46,9.92,9.92,0,0,0-3.55-1.93,5.13,5.13,0,0,1-1.89-1.44c-1.11-1.35-.66-1.69-1-2.36a9.93,9.93,0,0,0-1.13-1.61c-.6-.67-.5-.6-1.08-1.32a30.52,30.52,0,0,0-3.13-3c-.39-.42-1.12-1.22-.94-1.65s.62-.19.79-.12a8.93,8.93,0,0,1,2.42,1.76q2.28,2.17,4.52,4.39c1.48,1.44,3,3,4.37,4.35a15.42,15.42,0,0,0,1.59,1.29c.56.35,1.32.76,1.85,1.15a29.89,29.89,0,0,1,2.42,1.78"
       transform="translate(-18.97 -19.42)"
       id="renal_efferent_arteriole_7" />
    <path
       class="cls-17"
       d="M257.21,269.26c.46.41.93.95.82,1.51-.07.38-.13.4-.71.31s-.92-.66-1.42-.93-1.14-.74-1.64-1a22.22,22.22,0,0,1-2.26-1.46,5.5,5.5,0,0,0-3.62-1.19,5.51,5.51,0,0,1-2.14-.67c-1.47-.77-1.23-1.26-1.82-1.71a8.86,8.86,0,0,0-1.71-.94c-.84-.31-.73-.29-1.57-.64a11.06,11.06,0,0,1-2.16-1.23c-.55-.34-1-.58-1.59-1S236,259.48,236,259s.52-.4.73-.37a6.39,6.39,0,0,1,3,1.28c.42.29.86.62,1.15.77a2,2,0,0,0,.38.17l.77.21c1,.3,2,.6,3.06.95a27.88,27.88,0,0,1,6,2.74c.63.39,1.23.81,1.87,1.16a19.89,19.89,0,0,1,2,1.21,13.79,13.79,0,0,1,2.39,2.14"
       transform="translate(-18.97 -19.42)"
       id="renal_efferent_arteriole_6" />
    <path
       class="cls-17"
       d="M233.81,257.65c.64.15,1.39.39,1.54,1,.11.38,0,.42-.51.58s-1.11-.16-1.69-.09-1.34,0-1.9.05-.93.13-1.31.15-.75,0-1.33.1a6.16,6.16,0,0,0-2.3.58,8.12,8.12,0,0,0-1.26.84,5.37,5.37,0,0,1-2.12.82c-1.69.3-1.78-.25-2.52-.28a9.26,9.26,0,0,0-2,.21c-.86.23-.76.18-1.65.37a22.64,22.64,0,0,0-4.12,1.46c-.54.17-1.58.49-1.89.14s.09-.64.23-.76a9.28,9.28,0,0,1,2.64-1.45c2-.68,4-1.44,6-2,1-.29,2-.59,3.07-.86a30.68,30.68,0,0,1,3.2-.63l2.19-.31a12.4,12.4,0,0,1,2.37-.31,10.18,10.18,0,0,1,3.32.43"
       transform="translate(-18.97 -19.42)"
       id="renal_efferent_arteriole_5" />
    <path
       class="cls-17"
       d="M208.4,263.72c.55-.22,1.23-.43,1.69-.1s.31.29,0,.78-1,.56-1.45.89-1.2.66-1.7.95a15.48,15.48,0,0,1-2.39,1.26,6.42,6.42,0,0,0-3.07,2.41,5.83,5.83,0,0,1-1.89,1.31c-1.55.69-1.77.18-2.51.33a7.6,7.6,0,0,0-1.81.72c-.78.44-.69.37-1.51.77a24.55,24.55,0,0,0-3.52,2.59c-.46.33-1.35,1-1.75.73s-.11-.64,0-.8a7.81,7.81,0,0,1,2.11-2.18,54.6,54.6,0,0,1,11-6.6c.64-.31,1.31-.57,1.94-.92s1.37-.81,2-1.1a17.64,17.64,0,0,1,2.93-1.05"
       transform="translate(-18.97 -19.42)"
       id="renal_efferent_arteriole_4" />
    <path
       class="cls-17"
       d="M186.24,277.3c.46-.4,1-.83,1.59-.65.37.12.39.19.22.74s-.74.85-1.07,1.32-.93,1-1.27,1.46a14.22,14.22,0,0,1-1.8,2,6.38,6.38,0,0,0-1.93,3.37,5.12,5.12,0,0,1-1.21,1.94c-1.16,1.23-1.55.86-2.15,1.3a6.94,6.94,0,0,0-1.38,1.38c-.52.73-.47.62-1.05,1.34a9.82,9.82,0,0,0-1.31,2.14c-.26.59-.48,1.07-.81,1.67s-.82,1.44-1.29,1.4-.37-.54-.35-.72a8.07,8.07,0,0,1,1-2.87,46.91,46.91,0,0,1,7.44-10.5,20.06,20.06,0,0,0,1.46-1.6c.45-.52,1-1.25,1.51-1.73a14.08,14.08,0,0,1,2.42-2"
       transform="translate(-18.97 -19.42)"
       id="renal_efferent_arteriole_3" />
    <path
       class="cls-17"
       d="M171.15,298.49c.26-.54.59-1.17,1.17-1.24.39-.05.42,0,.52.57s-.33,1.09-.44,1.66-.44,1.29-.55,1.85a13.62,13.62,0,0,1-.86,2.57,6.63,6.63,0,0,0-.47,3.87,5.24,5.24,0,0,1-.42,2.27c-.65,1.59-1.15,1.37-1.56,2a8.47,8.47,0,0,0-.83,1.78c-.26.86-.25.74-.55,1.6-.78,2.14-.52,2.95-.89,4.28-.15.55-.39,1.61-.85,1.69s-.5-.41-.54-.59a9,9,0,0,1,.15-3,70.84,70.84,0,0,1,3.36-12.3,21.11,21.11,0,0,0,.72-2,20.57,20.57,0,0,1,.68-2.19,14.12,14.12,0,0,1,1.37-2.81"
       transform="translate(-18.97 -19.42)"
       id="renal_efferent_arteriole_2" />
    <path
       class="cls-17"
       d="M164.3,323.5c.11-.58.3-1.26.83-1.48.36-.15.41-.11.65.42s-.06,1.13,0,1.7-.07,1.37-.07,1.95a18,18,0,0,1-.26,2.7,6.9,6.9,0,0,0,.29,3.91,5.24,5.24,0,0,1,0,2.33c-.37,1.69-.91,1.56-1.23,2.24a10.14,10.14,0,0,0-.55,1.88c-.14.89-.14.77-.33,1.67a29.21,29.21,0,0,0-.34,4.36c-.08.56-.23,1.64-.68,1.76s-.54-.35-.59-.53a9.28,9.28,0,0,1-.19-3,123,123,0,0,1,1.39-12.56c.12-.7.26-1.4.31-2.11a21.08,21.08,0,0,1,.16-2.25,19.42,19.42,0,0,1,.65-3"
       transform="translate(-18.97 -19.42)"
       id="renal_efferent_arteriole_1" />
    <path
  </g>
</svg>
