<?xml version="1.0" encoding="UTF-8" standalone="no"?>
<svg
   viewBox="0 0 570.04 391.19"
   version="1.1"
   id="svg1669"
   sodipodi:docname="Schematics_Renal Corpuscle - human_edited.svg"
   inkscape:version="1.1 (c68e22c387, 2021-05-23)"
   xmlns:inkscape="http://www.inkscape.org/namespaces/inkscape"
   xmlns:sodipodi="http://sodipodi.sourceforge.net/DTD/sodipodi-0.dtd"
   xmlns="http://www.w3.org/2000/svg"
   xmlns:svg="http://www.w3.org/2000/svg">
  <sodipodi:namedview
     id="namedview1671"
     pagecolor="#ffffff"
     bordercolor="#666666"
     borderopacity="1.0"
     inkscape:pageshadow="2"
     inkscape:pageopacity="0.0"
     inkscape:pagecheckerboard="0"
     showgrid="false"
     inkscape:zoom="2.8630588"
     inkscape:cx="306.49039"
     inkscape:cy="232.61835"
     inkscape:window-width="1366"
     inkscape:window-height="706"
     inkscape:window-x="-8"
     inkscape:window-y="-8"
     inkscape:window-maximized="1"
     inkscape:current-layer="mesangium" />
  <defs
     id="defs4">
    <style
       id="style2">.cls-1{font-size:7px;fill:gray;}.cls-1,.cls-32,.cls-53{font-family:LibreFranklin-Regular, Libre Franklin;}.cls-2{letter-spacing:-0.01em;}.cls-3{letter-spacing:-0.06em;}.cls-4{fill:#af294d;stroke:#7a1e3a;stroke-width:0.38px;}.cls-10,.cls-11,.cls-12,.cls-13,.cls-15,.cls-19,.cls-20,.cls-21,.cls-22,.cls-24,.cls-25,.cls-26,.cls-27,.cls-37,.cls-4,.cls-60,.cls-8,.cls-9{stroke-miterlimit:10;}.cls-5{fill:#7a1e3a;}.cls-6{fill:#fff3db;}.cls-27,.cls-7{fill:#fff;}.cls-10,.cls-8,.cls-9{fill:#ffdfa4;stroke:#e5c698;}.cls-20,.cls-21,.cls-26,.cls-8{stroke-width:0.75px;}.cls-11,.cls-12,.cls-9{stroke-width:2px;}.cls-11,.cls-12,.cls-60{fill:none;}.cls-11{stroke:#ffdfa4;}.cls-12,.cls-24,.cls-25{stroke:#8a93b2;}.cls-13{fill:#8ac2e9;stroke:#6d9bb5;stroke-width:0.8px;}.cls-14{fill:#6d9bb5;}.cls-15{fill:#3989c9;stroke:#2b6993;}.cls-15,.cls-17,.cls-18,.cls-22,.cls-24,.cls-25,.cls-60{stroke-width:0.5px;}.cls-16{fill:#2b6993;}.cls-17,.cls-19{fill:#e0a9b5;}.cls-17{stroke:#e05a77;}.cls-18{fill:#7c3e48;stroke:#7c3e48;}.cls-19{stroke:#e26f82;}.cls-19,.cls-37{stroke-width:0.25px;}.cls-20,.cls-22{fill:#a1e5df;}.cls-20,.cls-21,.cls-22{stroke:#84b2aa;}.cls-21,.cls-23{fill:#84b2aa;}.cls-24{fill:#acb6e5;}.cls-25{fill:#8a93b2;}.cls-26{fill:#ed8863;stroke:#b7674e;}.cls-27{stroke:#ed8863;stroke-width:0.1px;opacity:0.59;}.cls-28,.cls-30{fill:#bdd393;}.cls-28,.cls-29,.cls-30,.cls-31{stroke:#8f9e6f;}.cls-28{stroke-width:0.42px;}.cls-29,.cls-31{fill:#8f9e6f;}.cls-29{stroke-width:0.31px;}.cls-30{stroke-width:0.42px;}.cls-31{stroke-width:0.31px;}.cls-32{font-size:10px;}.cls-33{letter-spacing:0em;}.cls-34,.cls-53,.cls-54{font-size:8px;}.cls-35{letter-spacing:-0.01em;}.cls-36{letter-spacing:0em;}.cls-37,.cls-60{stroke:#000;}.cls-38{letter-spacing:-0.01em;}.cls-39{letter-spacing:-0.02em;}.cls-40{letter-spacing:-0.01em;}.cls-41{letter-spacing:0em;}.cls-42{letter-spacing:0em;}.cls-43{letter-spacing:-0.01em;}.cls-44{letter-spacing:0em;}.cls-45{letter-spacing:0em;}.cls-46{letter-spacing:-0.01em;}.cls-47{letter-spacing:-0.03em;}.cls-48{letter-spacing:0em;}.cls-49{letter-spacing:-0.01em;}.cls-50{letter-spacing:-0.01em;}.cls-51{letter-spacing:-0.01em;}.cls-52{letter-spacing:-0.02em;}.cls-54{font-family:LibreFranklin-Italic, Libre Franklin;font-style:italic;}.cls-55{letter-spacing:-0.01em;}.cls-56{letter-spacing:-0.02em;}.cls-57{letter-spacing:0em;}.cls-58{letter-spacing:-0.01em;}.cls-59{font-size:21px;font-family:LibreFranklin-Bold, Libre Franklin;font-weight:700;}</style>
  </defs>
  <g
     id="endothelial_cells"
     data-name="endothelial cells">
    <path
       class="cls-17"
       d="M252.56,184.33a2,2,0,0,1,.43-1.72c.31-.23.37-.2.73.27s.22,1.13.42,1.68.3,1.36.48,1.92a16.91,16.91,0,0,1,.57,2.71,7.52,7.52,0,0,0,1.45,3.75,5.44,5.44,0,0,1,.64,2.33c.07,1.8-.5,1.79-.63,2.55a10.4,10.4,0,0,0-.14,2c0,.92,0,.8,0,1.74-.15,2.3.15,3,0,4.45-.11.57-.3,1.67-.78,1.73s-.49-.4-.55-.58a5.69,5.69,0,0,1-.14-1.3,13,13,0,0,1,0-1.54c0-4.05-.75-8.22-1.27-12.45a19.29,19.29,0,0,0-.35-2.13c-.16-.68-.42-1.56-.52-2.25a17.44,17.44,0,0,1-.25-3.2"
       transform="translate(-18.97 -19.42)"
       id="path187" />
    <path
       class="cls-18"
       d="M255.72,196c-.35.05-.73-.43-.84-1.08s.09-1.23.45-1.29.73.42.84,1.07S256.08,196,255.72,196Z"
       transform="translate(-18.97 -19.42)"
       id="path189" />
    <path
       class="cls-17"
       d="M254.37,209.63c.24-.49.43-1.1,1-1.28.36-.12.42-.09.62.47s-.2,1.14-.29,1.73a7.71,7.71,0,0,1-.74,1.91,5.64,5.64,0,0,1-.75,1.22,5.57,5.57,0,0,1-1,1.08c-.47.43-.82.79-1.11,1.09a6.92,6.92,0,0,0-.72.73c-.38.44-.58.88-1,1.33a4.68,4.68,0,0,1-2.14,1.38c-1.81.59-1.92,0-2.7,0-.52,0-1.51.15-2,.22a13.94,13.94,0,0,1-1.72.22c-2.3.14-3,.52-4.42.57-.59,0-1.69,0-1.86-.47s.31-.58.48-.65a6.12,6.12,0,0,1,1.3-.35,13.9,13.9,0,0,1,1.55-.26,12.77,12.77,0,0,0,1.51-.22c.5-.09,1-.17,1.5-.27,1-.26,2-.46,2.92-.81a27.94,27.94,0,0,0,2.81-1.06,23.17,23.17,0,0,0,2.58-1.43,5.46,5.46,0,0,0,1.52-1.23,18.81,18.81,0,0,0,1.25-1.61,17,17,0,0,0,1.44-2.33"
       transform="translate(-18.97 -19.42)"
       id="renal_afferent_arteriole_1" />
    <path
       class="cls-18"
       d="M247.1,218c-.14-.33.22-.81.8-1.07s1.15-.31,1.34,0-.16.85-.76,1.17S247.23,218.32,247.1,218Z"
       transform="translate(-18.97 -19.42)"
       id="path193" />
    <path
       class="cls-17"
       d="M233.28,219a1.87,1.87,0,0,1,1.57.61c.2.34.18.4-.32.71s-1.15.1-1.73.21-1.41,0-2,0a11.73,11.73,0,0,1-2.8-.31,10.21,10.21,0,0,0-4.12-.29,5.32,5.32,0,0,1-2.44-.67c-1.54-1-1.22-1.44-1.77-2a11.11,11.11,0,0,0-1.61-1.21,12.88,12.88,0,0,1-1.46-.94,37.16,37.16,0,0,0-3.81-2.31,7.36,7.36,0,0,1-.86-.66,1.07,1.07,0,0,1-.38-.8c.11-.39.58-.28.76-.23a10.9,10.9,0,0,1,2.72,1.2c.9.52,1.79,1.08,2.7,1.59l2.81,1.39a34.62,34.62,0,0,0,5.62,2.46,11.4,11.4,0,0,0,2,.51c.66.11,1.54.1,2.19.23,1.72.23,1.83.25,3,.46"
       transform="translate(-18.97 -19.42)"
       id="renal_afferent_arteriole_2" />
    <path
       class="cls-18"
       d="M221.64,217.59c.15-.33.75-.35,1.35-.14s1,.7.87,1.05-.73.42-1.36.17S221.5,217.92,221.64,217.59Z"
       transform="translate(-18.97 -19.42)"
       id="path197" />
    <path
       class="cls-17"
       d="M210.14,209.46c.47.36,1,.83,1,1.41,0,.39-.08.42-.66.4s-1-.57-1.54-.82-1.21-.72-1.74-1a14.22,14.22,0,0,1-2.17-1.75,9.77,9.77,0,0,0-2-1.49c-.5-.26-.89-.41-1.43-.67a5.63,5.63,0,0,1-1.86-1.58c-1.11-1.44-.64-1.73-.92-2.46a9.8,9.8,0,0,0-1-1.77c-.53-.75-.45-.67-.95-1.45-.65-1-1.06-1.6-1.48-2.1a14.23,14.23,0,0,1-1.15-1.51c-.3-.49-.88-1.44-.6-1.8s.65-.05.81,0a9.62,9.62,0,0,1,2,2.18l.92,1.28c.31.42.66.81,1,1.22l2,2.43c.63.84,1.41,1.54,2.09,2.33s1.38,1.57,2.1,2.33a17.52,17.52,0,0,0,1.56,1.42c.54.41,1.27.91,1.77,1.37,1.33,1.16,1.47,1.17,2.32,2"
       transform="translate(-18.97 -19.42)"
       id="renal_afferent_arteriole_3" />
    <path
       class="cls-18"
       d="M200.52,202.46c.27-.25.85-.06,1.31.41s.61,1.06.36,1.31-.84.08-1.31-.41S200.26,202.7,200.52,202.46Z"
       transform="translate(-18.97 -19.42)"
       id="path201" />
    <path
       class="cls-17"
       d="M193,190.5a1.91,1.91,0,0,1,.35,1.68c-.17.35-.23.36-.76.12s-.71-.92-1.11-1.34-.84-1.13-1.21-1.6a10,10,0,0,1-1.45-2.38,8.16,8.16,0,0,0-2.52-3.18,5.49,5.49,0,0,1-1.22-2.09c-.57-1.71,0-1.85-.11-2.61a13.28,13.28,0,0,0-.42-2c-.29-.87-.23-.77-.48-1.67a12.42,12.42,0,0,0-.9-2.4,15,15,0,0,1-.71-1.76c-.16-.56-.47-1.62-.11-1.92s.64.12.76.26a9.43,9.43,0,0,1,1.4,2.66l2.4,5.87,1.28,2.9c.41,1,.8,2,1.26,2.9a19.89,19.89,0,0,0,1,1.9c.36.58.86,1.32,1.17,1.92a19,19,0,0,1,1.43,2.74"
       transform="translate(-18.97 -19.42)"
       id="renal_afferent_arteriole_4" />
    <path
       class="cls-18"
       d="M186.41,180.56c.33-.15.82.21,1.09.81s.24,1.21-.09,1.37-.81-.21-1.09-.81S186.08,180.71,186.41,180.56Z"
       transform="translate(-18.97 -19.42)"
       id="path205" />
    <path
       class="cls-17"
       d="M182.33,167c.17.58.35,1.26,0,1.71-.24.3-.31.3-.78-.06s-.52-1-.81-1.54-.55-1.29-.81-1.82a15.06,15.06,0,0,1-1-2.61,7.74,7.74,0,0,0-1.86-3.57,5.46,5.46,0,0,1-.91-2.23c-.29-1.76.28-1.83.32-2.6a10.38,10.38,0,0,0-.16-2c-.18-.9-.14-.78-.28-1.71a37.34,37.34,0,0,0-1.1-4.32c-.11-.57-.32-1.66.06-1.92s.63.18.74.33a9.76,9.76,0,0,1,1.14,2.8c1.09,4.13,2.24,8.23,3.24,12.36a16.27,16.27,0,0,0,.58,2.07c.25.64.63,1.46.83,2.12a20.19,20.19,0,0,1,.77,3"
       transform="translate(-18.97 -19.42)"
       id="renal_afferent_arteriole_5" />
    <path
       class="cls-18"
       d="M177.64,155.91c.35-.1.78.34,1,1s0,1.23-.29,1.33-.78-.33-1-1S177.29,156,177.64,155.91Z"
       transform="translate(-18.97 -19.42)"
       id="path209" />
    <path
       class="cls-17"
       d="M161.54,146.17c-.07-.56-.1-1.22.34-1.57.29-.23.36-.21.75.19s.29,1,.49,1.54.32,1.26.48,1.78a12.17,12.17,0,0,1,.5,2.5,6,6,0,0,0,1.42,3.43,4.51,4.51,0,0,1,.66,2.09c.12,1.62-.44,1.67-.54,2.37a8.19,8.19,0,0,0,.07,1.85c.15.83.11.73.22,1.58a24.09,24.09,0,0,0,1,4c.12.52.36,1.51,0,1.78s-.63-.12-.74-.26a7.07,7.07,0,0,1-1.17-2.59c-.5-1.94-1-3.87-1.48-5.82s-.72-3.93-1-5.91c-.09-.66-.18-1.33-.32-2s-.37-1.45-.45-2.09a18.11,18.11,0,0,1-.24-2.92"
       transform="translate(-18.97 -19.42)"
       id="renal_afferent_arteriole_6" />
    <path
       class="cls-18"
       d="M164.65,156.92c-.35.08-.73-.35-.86-.95s.07-1.15.43-1.22.74.35.86.95S165,156.85,164.65,156.92Z"
       transform="translate(-18.97 -19.42)"
       id="path213" />
    <path
       class="cls-17"
       d="M166.86,170a1.73,1.73,0,0,1,.1-1.62c.25-.28.32-.27.76.07s.44,1,.72,1.44.5,1.19.74,1.68a14.11,14.11,0,0,1,1,2.36,6.32,6.32,0,0,0,2,3.12A5.15,5.15,0,0,1,173.2,179c.45,1.55-.08,1.7,0,2.41a9.35,9.35,0,0,0,.38,1.82c.29.8.26.69.53,1.51a29,29,0,0,0,1.86,3.68c.19.51.65,1.42.34,1.76s-.65,0-.78-.1a7.19,7.19,0,0,1-1.66-2.3c-.92-1.79-1.87-3.56-2.61-5.43a49.51,49.51,0,0,1-2.13-5.62,17.77,17.77,0,0,0-.66-1.9c-.27-.59-.66-1.36-.87-2a14.71,14.71,0,0,1-.71-2.85"
       transform="translate(-18.97 -19.42)"
       id="renal_afferent_arteriole_7" />
    <path
       class="cls-18"
       d="M171.86,180c-.33.14-.8-.2-1.05-.77s-.17-1.13.16-1.27.81.21,1.05.77S172.19,179.87,171.86,180Z"
       transform="translate(-18.97 -19.42)"
       id="path217" />
    <path
       class="cls-17"
       d="M176.7,192.37a1.75,1.75,0,0,1-.27-1.6c.19-.33.26-.33.77-.1s.65.85,1,1.25.75,1.05,1.09,1.47a17.66,17.66,0,0,1,1.48,2.08,6.27,6.27,0,0,0,2.62,2.59,4.86,4.86,0,0,1,1.49,1.6c.8,1.4.31,1.68.52,2.36a6.73,6.73,0,0,0,.81,1.66c.5.69.42.61.89,1.34a23,23,0,0,0,2.67,3.13c.35.41,1,1.21.78,1.61s-.62.17-.78.09a7,7,0,0,1-2.2-1.81,65.57,65.57,0,0,1-7.22-9.63,15.89,15.89,0,0,0-1.08-1.71c-.39-.52-.95-1.17-1.29-1.72a17,17,0,0,1-1.31-2.64"
       transform="translate(-18.97 -19.42)"
       id="renal_afferent_arteriole_8" />
    <path
       class="cls-18"
       d="M183.85,201c-.29.22-.83,0-1.2-.5s-.43-1.07-.14-1.28.84,0,1.2.51S184.14,200.79,183.85,201Z"
       transform="translate(-18.97 -19.42)"
       id="path221" />
    <path
       class="cls-17"
       d="M191.5,211.85c-.37-.42-.78-1-.62-1.5.1-.37.16-.39.71-.28s.82.68,1.27,1,1,.82,1.45,1.13a12.17,12.17,0,0,1,1.92,1.68,5.71,5.71,0,0,0,3.2,1.85,4.46,4.46,0,0,1,1.81,1.23c1.08,1.2.69,1.56,1.06,2.16a9,9,0,0,0,1.21,1.41,15.09,15.09,0,0,1,1.15,1.12c1.51,1.52,2.34,1.57,3.34,2.41.42.33,1.22,1,1.09,1.42s-.56.3-.73.26a8.41,8.41,0,0,1-2.54-1.28l-1.24-.85-1.19-.92L201,220.83c-1.57-1.25-3-2.64-4.48-4-.49-.45-.92-1-1.45-1.4s-1.19-.92-1.65-1.38a11.73,11.73,0,0,1-1.94-2.2"
       transform="translate(-18.97 -19.42)"
       id="renal_afferent_arteriole_9" />
    <path
       class="cls-18"
       d="M200.53,218.51c-.23.28-.8.18-1.27-.22s-.65-.95-.42-1.23.81-.17,1.27.23S200.76,218.23,200.53,218.51Z"
       transform="translate(-18.97 -19.42)"
       id="path225" />
    <path
       class="cls-17"
       d="M210.56,227.29c-.5-.31-1.07-.75-1-1.31,0-.39.07-.41.63-.44s1,.46,1.5.59,1.18.48,1.7.62a21.69,21.69,0,0,1,2.38.83,5.51,5.51,0,0,0,3.64.34,4.71,4.71,0,0,1,2.13.28c1.51.53,1.34,1.05,1.94,1.41a7.09,7.09,0,0,0,1.72.68c.82.21.71.19,1.55.43a22.74,22.74,0,0,0,4.09.5c.53.09,1.54.25,1.65.69s-.35.54-.52.59a8.07,8.07,0,0,1-2.84.13,51.76,51.76,0,0,1-11.86-2.48c-.64-.25-1.28-.48-1.94-.68a16.14,16.14,0,0,1-2.11-.67,12.11,12.11,0,0,1-2.65-1.52"
       transform="translate(-18.97 -19.42)"
       id="renal_afferent_arteriole_10" />
    <path
       class="cls-18"
       d="M221.6,229.91c-.08.35-.63.54-1.24.39s-1-.55-.93-.9.64-.52,1.23-.37S221.67,229.55,221.6,229.91Z"
       transform="translate(-18.97 -19.42)"
       id="path229" />
    <path
       class="cls-17"
       d="M234.62,232.78c-.59,0-1.31-.12-1.55-.63-.17-.35-.13-.4.34-.69s1.07-.09,1.59-.22,1.27-.15,1.79-.32a21,21,0,0,1,2.46-.49,5.33,5.33,0,0,0,3.23-1.67,4.94,4.94,0,0,1,2-.92c1.56-.37,1.69.17,2.4.16a9.26,9.26,0,0,0,1.82-.33,15.38,15.38,0,0,1,1.55-.44,36,36,0,0,0,3.83-1.52c.51-.16,1.5-.43,1.78-.07s-.09.63-.22.74a8.48,8.48,0,0,1-2.41,1.35,70.33,70.33,0,0,1-11.3,4.06c-.67.16-1.36.26-2,.47a14.69,14.69,0,0,1-2.18.51,12.44,12.44,0,0,1-1.76.11,9,9,0,0,1-1.33-.1"
       transform="translate(-18.97 -19.42)"
       id="renal_afferent_arteriole_11" />
    <path
       class="cls-18"
       d="M245.43,229.24c.13.34-.24.78-.83,1s-1.16.09-1.27-.26.27-.76.84-1S245.3,228.9,245.43,229.24Z"
       transform="translate(-18.97 -19.42)"
       id="path233" />
    <path
       class="cls-17"
       d="M258.1,225.66a1.66,1.66,0,0,1-1.64,0c-.28-.25-.28-.31.05-.77s1-.45,1.41-.76,1.1-.63,1.51-1a22.8,22.8,0,0,1,2.05-1.47,7.29,7.29,0,0,0,2.59-2.73,4.28,4.28,0,0,1,1.86-1.4c1.63-.64,1.79-.07,2.52-.12a6.55,6.55,0,0,0,1.77-.43,14.74,14.74,0,0,1,1.44-.69c1.9-1,2.22-1.74,3.3-2.47.44-.31,1.27-.9,1.66-.66s.13.62.05.78a7.67,7.67,0,0,1-2,2.08c-.79.63-1.63,1.23-2.5,1.82-.46.28-.87.57-1.38.83s-1.1.55-1.48.69a32.8,32.8,0,0,0-4.94,2.64,14.43,14.43,0,0,0-1.65,1.11,14,14,0,0,1-1.76,1.34,8.81,8.81,0,0,1-2.93,1.23"
       transform="translate(-18.97 -19.42)"
       id="renal_afferent_arteriole_12" />
    <path
       class="cls-18"
       d="M267.13,218.75c.16.33-.13.8-.64,1.1s-1.08.32-1.27,0,.07-.83.61-1.14S267,218.43,267.13,218.75Z"
       transform="translate(-18.97 -19.42)"
       id="path237" />
    <path
       class="cls-17"
       d="M278.75,212.33c-.44.35-1,.73-1.52.55-.36-.13-.37-.19-.24-.73s.72-.79,1.05-1.23.88-.95,1.23-1.36a14.1,14.1,0,0,1,1.83-1.79,6.39,6.39,0,0,0,2.18-3,4.62,4.62,0,0,1,1.44-1.67c1.32-1,1.64-.51,2.3-.79a9.23,9.23,0,0,0,1.58-1c.65-.53.58-.45,1.28-1a30.62,30.62,0,0,0,3-2.83c.41-.34,1.22-1,1.62-.75s.16.62.08.77a8.44,8.44,0,0,1-1.73,2.18c-2.85,2.74-5.71,5.5-8.79,8a18.9,18.9,0,0,0-1.51,1.31c-.45.47-1,1.11-1.49,1.53a17.22,17.22,0,0,1-2.33,1.77"
       transform="translate(-18.97 -19.42)"
       id="renal_afferent_arteriole_13" />
    <path
       class="cls-18"
       d="M286.19,204c.25.26.08.82-.37,1.24s-1,.54-1.26.27-.08-.82.37-1.23S285.94,203.72,286.19,204Z"
       transform="translate(-18.97 -19.42)"
       id="path241" />
    <path
       class="cls-17"
       d="M339.9,279.32c-.46-2.86-.27-13.49,3.58-19.62,2.26-3.59,8.75-8.7,11.3-9.45.85-.25,2.84-1.22,2.22,0s-3.67,2.77-5.53,4.16c-3.75,2.81-6.62,6.2-7.25,7.88s.36,3.69-.23,5.78a19.29,19.29,0,0,1-2.19,4.07c-1.84,2.81.37,9.81,0,11.34C341.3,285.2,339.9,279.3,339.9,279.32Z"
       transform="translate(-18.97 -19.42)"
       id="glomerular_capillary_endothelium_1" />
    <path
       class="cls-17"
       d="M347.92,221.1c-6.05.42-9.33-.38-15.34-2.14a35.82,35.82,0,0,1-4.92-1.73c-3.68-1.68-9.83-6.27-10.34-9-.11-.62.67-.35,1.15-.26a7.17,7.17,0,0,1,2.21,1.5l3.89,3.4a3.35,3.35,0,0,0,1.08.72,7.93,7.93,0,0,0,2.19.14c2.05.11,3.52,1.66,5.22,2.66a21.14,21.14,0,0,0,5,1.82c5.57,1.59,9.61.59,15.14.21C354.05,218.35,352.3,220.8,347.92,221.1Z"
       transform="translate(-18.97 -19.42)"
       id="glomerular_capillary_endothelium_2" />
    <ellipse
       class="cls-18"
       cx="342.38"
       cy="267.59"
       rx="1.15"
       ry="0.83"
       transform="translate(-23.19 510.26) rotate(-75.1)"
       id="ellipse575" />
    <ellipse
       class="cls-18"
       cx="328.93"
       cy="215.56"
       rx="0.65"
       ry="1.11"
       transform="translate(-17.16 414.44) rotate(-66.95)"
       id="ellipse577" />
    <path
       class="cls-17"
       d="M175.7,349.13c-.11.56-.3,1.21-.82,1.42-.36.14-.41.1-.65-.41s.05-1.09,0-1.65.09-1.32.11-1.87a12.84,12.84,0,0,1,.32-2.6,6.77,6.77,0,0,0-.13-3.8,5,5,0,0,1,.15-2.26c.47-1.61,1-1.44,1.36-2.07a9.45,9.45,0,0,0,.69-1.76c.21-.84.21-.73.47-1.57a33.28,33.28,0,0,0,.75-4.15c.14-.53.41-1.54.86-1.6s.5.4.53.58a9.08,9.08,0,0,1-.11,2.85c-.7,4-1.36,7.95-2.26,11.88a17.59,17.59,0,0,0-.38,2c-.06.65-.1,1.51-.22,2.15a18.74,18.74,0,0,1-.69,2.89"
       transform="translate(-18.97 -19.42)"
       id="renal_efferent_arteriole_15" />
    <path
       class="cls-18"
       d="M176.4,337.77c.35.06.56.61.45,1.23s-.48,1.07-.84,1-.56-.61-.45-1.23S176,337.71,176.4,337.77Z"
       transform="translate(-18.97 -19.42)"
       id="path581" />
    <path
       class="cls-17"
       d="M180,324.82c-.13.55-.33,1.19-.85,1.39-.36.13-.42.09-.65-.43s.08-1.09.06-1.64.12-1.32.15-1.88a13.68,13.68,0,0,1,.45-2.58,7.05,7.05,0,0,0,.06-3.83,4.83,4.83,0,0,1,.33-2.25c.6-1.59,1.12-1.36,1.52-2a12.83,12.83,0,0,0,.87-1.69,16.24,16.24,0,0,1,.64-1.51,11.47,11.47,0,0,0,.77-2.29,12.43,12.43,0,0,1,.54-1.71c.22-.5.65-1.45,1.11-1.44s.42.49.43.66a8.34,8.34,0,0,1-.57,2.76c-.56,1.9-1.15,3.8-1.69,5.72s-1.08,3.84-1.62,5.78a16,16,0,0,0-.47,2c-.09.64-.17,1.49-.32,2.12a21.59,21.59,0,0,1-.77,2.85"
       transform="translate(-18.97 -19.42)"
       id="renal_efferent_arteriole_14" />
    <path
       class="cls-18"
       d="M181.25,313.54c.35.09.51.65.35,1.26s-.56,1-.91.94-.51-.65-.36-1.26S180.9,313.45,181.25,313.54Z"
       transform="translate(-18.97 -19.42)"
       id="path585" />
    <path
       class="cls-17"
       d="M186.46,301.27c-.26.49-.55,1.09-1.09,1.18-.37.07-.42,0-.57-.53s.29-1.06.4-1.6.42-1.26.58-1.8a8.32,8.32,0,0,1,1-2.42,7.48,7.48,0,0,0,1.2-3.69,5.14,5.14,0,0,1,1.11-2.05c1.15-1.29,1.51-.92,2.15-1.3a9.69,9.69,0,0,0,1.5-1.19c.61-.62.55-.53,1.2-1.12,1.69-1.38,2-2.06,3-2.93.4-.38,1.28-.95,1.68-.71s.12.62,0,.77A10.91,10.91,0,0,1,197,286a46.9,46.9,0,0,0-3.93,4.29c-.62.75-1.14,1.58-1.73,2.35l-.87,1.18c-.29.39-.52.82-.79,1.23a14.67,14.67,0,0,0-1,1.71l-.43,1c-.13.34-.25.69-.39,1a19,19,0,0,1-1.36,2.55"
       transform="translate(-18.97 -19.42)"
       id="renal_efferent_arteriole_13" />
    <path
       class="cls-18"
       d="M190.76,290.92c.29.21.25.79-.1,1.3s-.88.75-1.18.56-.27-.77.09-1.3S190.46,290.71,190.76,290.92Z"
       transform="translate(-18.97 -19.42)"
       id="path589" />
    <path
       class="cls-17"
       d="M200.82,282.4a1.67,1.67,0,0,1-1.53.46c-.36-.13-.38-.19-.21-.73s.77-.77,1.13-1.2a7.05,7.05,0,0,1,.67-.67c.26-.22.54-.4.75-.59a13.38,13.38,0,0,1,2.16-1.5c.5-.31.88-.57,1.18-.8a5.33,5.33,0,0,0,.75-.58c.39-.37.61-.71,1-1.14a5,5,0,0,1,1.93-1.27c1.6-.59,1.77,0,2.49-.1a10,10,0,0,0,1.86-.42,15.79,15.79,0,0,1,1.57-.45c2.11-.55,2.67-1.07,4-1.39.54-.11,1.57-.32,1.81.09s-.16.61-.3.71a9.89,9.89,0,0,1-2.5,1.17c-3.66,1.27-7.26,3.09-10.83,4.74a7.89,7.89,0,0,0-1.73,1c-.52.38-1.17.92-1.71,1.24-1.44.84-1.51.93-2.47,1.48"
       transform="translate(-18.97 -19.42)"
       id="renal_efferent_arteriole_12" />
    <path
       class="cls-18"
       d="M209.78,275.64c.16.33-.16.83-.71,1.11s-1.13.26-1.29-.06.15-.82.71-1.11S209.63,275.32,209.78,275.64Z"
       transform="translate(-18.97 -19.42)"
       id="path593" />
    <path
       class="cls-17"
       d="M222.56,272.44a1.77,1.77,0,0,1-1.56-.29c-.25-.28-.25-.34.14-.76s1-.33,1.56-.53a14.72,14.72,0,0,1,1.86-.42,9.25,9.25,0,0,1,2.64-.23,8.32,8.32,0,0,0,3.83-.61,4.83,4.83,0,0,1,2.33,0,3.28,3.28,0,0,1,.7.24,2.36,2.36,0,0,1,.43.24,2,2,0,0,1,.47.44,4,4,0,0,0,.57.75,11.84,11.84,0,0,0,1.6,1,14.48,14.48,0,0,1,1.42.82c1.85,1.16,2.66,1.13,3.71,2,.44.34,1.18,1.08,1,1.5s-.59.22-.75.17a19.27,19.27,0,0,1-2.3-1.09c-1.69-.85-3.57-1.67-5.35-2.37-.45-.17-.9-.34-1.31-.47a5.42,5.42,0,0,0-.53-.14l-.69-.1c-1-.14-1.95-.25-2.92-.36a10,10,0,0,0-2-.09c-.63,0-1.44.17-2.06.18-1.63.1-1.73.12-2.83.12"
       transform="translate(-18.97 -19.42)"
       id="renal_efferent_arteriole_11" />
    <path
       class="cls-18"
       d="M233.61,271.32c-.12.34-.54.55-1.18.49s-1.09-.4-1.06-.76.57-.6,1.2-.54S233.72,271,233.61,271.32Z"
       transform="translate(-18.97 -19.42)"
       id="path597" />
    <path
       class="cls-17"
       d="M244.07,278.6a1.76,1.76,0,0,1-.51-1.45c.1-.36.16-.4.71-.29s.82.73,1.25,1.09a12.19,12.19,0,0,1,1.23,1.46,12.72,12.72,0,0,1,1.47,2.17,7.4,7.4,0,0,0,2.57,2.85,4.71,4.71,0,0,1,1.31,1.88c.61,1.61.07,1.78.16,2.51a10.65,10.65,0,0,0,.46,1.85,13,13,0,0,1,.48,1.57c.58,2.1,1.13,2.64,1.48,3.94.12.53.38,1.55,0,1.81s-.62-.13-.73-.27a9.55,9.55,0,0,1-1.25-2.48,103.91,103.91,0,0,0-5-10.73,13.72,13.72,0,0,0-1-1.74c-.37-.53-.9-1.2-1.23-1.77l-.83-1.4-.57-1"
       transform="translate(-18.97 -19.42)"
       id="renal_efferent_arteriole_10" />
    <path
       class="cls-18"
       d="M250.86,287.51c-.32.17-.81-.14-1.11-.69s-.28-1.12,0-1.3.83.12,1.12.68S251.18,287.34,250.86,287.51Z"
       transform="translate(-18.97 -19.42)"
       id="path601" />
    <path
       class="cls-17"
       d="M254.46,300.24a1.8,1.8,0,0,1,.19-1.58c.27-.28.33-.27.77.09s.38,1,.62,1.53.45,1.23.66,1.72c.53.93.61,1.27,1.16,2.2a4.37,4.37,0,0,0,1.52,1.61,5.41,5.41,0,0,0,1.31.51,5.47,5.47,0,0,1,1.79,1.13c1.18,1.08.84,1.5,1.26,2.08a9.36,9.36,0,0,0,1.34,1.33,11.42,11.42,0,0,1,1.24,1.08c1.57,1.5,2.32,1.71,3.16,2.76.37.41.89,1.33.61,1.68s-.63.08-.77,0-.3-.21-.45-.33-.34-.24-.51-.38l-1-.91c-2.7-2.47-6.67-4.09-9.59-7.53a6.8,6.8,0,0,1-.69-.89c-.22-.31-.47-.59-.68-.91l-.7-1a8.51,8.51,0,0,1-.53-1.11,5.82,5.82,0,0,1-.35-1.1l-.17-.74a10,10,0,0,1-.16-1.26"
       transform="translate(-18.97 -19.42)"
       id="renal_efferent_arteriole_9" />
    <path
       class="cls-18"
       d="M261.89,309.06c-.2.29-.8.26-1.31-.15s-.73-1-.49-1.23.8-.18,1.29.19S262.11,308.76,261.89,309.06Z"
       transform="translate(-18.97 -19.42)"
       id="path605" />
    <path
       class="cls-17"
       d="M299.57,296.1c.56.21,1.19.51,1.32,1.06.08.38,0,.43-.53.58s-1.1-.25-1.68-.32-1.33-.33-1.89-.45a13.74,13.74,0,0,1-2.6-.82,7.55,7.55,0,0,0-3.91-.66,5.25,5.25,0,0,1-2.27-.65c-1.54-.86-1.25-1.33-1.81-1.83a10,10,0,0,0-1.62-1.12c-.79-.43-.68-.4-1.46-.88-1.92-1.21-2.72-1.23-3.91-1.95-.49-.28-1.4-.88-1.32-1.34s.55-.34.73-.31a10.14,10.14,0,0,1,2.75,1c3.69,1.82,7.52,3.4,11.32,5.09a17.23,17.23,0,0,0,1.95.78c.64.19,1.51.39,2.14.63a21.88,21.88,0,0,1,2.82,1.21"
       transform="translate(-18.97 -19.42)"
       id="renal_efferent_arteriole_8" />
    <path
       class="cls-18"
       d="M288.18,293.12c.13-.33.73-.4,1.33-.16s1,.7.85,1-.73.41-1.34.17S288,293.46,288.18,293.12Z"
       transform="translate(-18.97 -19.42)"
       id="path609" />
    <path
       class="cls-17"
       d="M276.34,286c.49.31,1,.73,1.06,1.29,0,.38,0,.42-.62.46s-1-.46-1.59-.65a17.89,17.89,0,0,1-1.75-.88,11.86,11.86,0,0,1-2.32-1.46,9.92,9.92,0,0,0-3.55-1.93,5.13,5.13,0,0,1-1.89-1.44c-1.11-1.35-.66-1.69-1-2.36a9.93,9.93,0,0,0-1.13-1.61c-.6-.67-.5-.6-1.08-1.32a30.52,30.52,0,0,0-3.13-3c-.39-.42-1.12-1.22-.94-1.65s.62-.19.79-.12a8.93,8.93,0,0,1,2.42,1.76q2.28,2.17,4.52,4.39c1.48,1.44,3,3,4.37,4.35a15.42,15.42,0,0,0,1.59,1.29c.56.35,1.32.76,1.85,1.15a29.89,29.89,0,0,1,2.42,1.78"
       transform="translate(-18.97 -19.42)"
       id="renal_efferent_arteriole_7" />
    <path
       class="cls-18"
       d="M266.47,279.8c.25-.26.83-.1,1.3.34s.65,1,.41,1.28-.84.12-1.31-.33S266.22,280.06,266.47,279.8Z"
       transform="translate(-18.97 -19.42)"
       id="path613" />
    <path
       class="cls-17"
       d="M257.21,269.26c.46.41.93.95.82,1.51-.07.38-.13.4-.71.31s-.92-.66-1.42-.93-1.14-.74-1.64-1a22.22,22.22,0,0,1-2.26-1.46,5.5,5.5,0,0,0-3.62-1.19,5.51,5.51,0,0,1-2.14-.67c-1.47-.77-1.23-1.26-1.82-1.71a8.86,8.86,0,0,0-1.71-.94c-.84-.31-.73-.29-1.57-.64a11.06,11.06,0,0,1-2.16-1.23c-.55-.34-1-.58-1.59-1S236,259.48,236,259s.52-.4.73-.37a6.39,6.39,0,0,1,3,1.28c.42.29.86.62,1.15.77a2,2,0,0,0,.38.17l.77.21c1,.3,2,.6,3.06.95a27.88,27.88,0,0,1,6,2.74c.63.39,1.23.81,1.87,1.16a19.89,19.89,0,0,1,2,1.21,13.79,13.79,0,0,1,2.39,2.14"
       transform="translate(-18.97 -19.42)"
       id="renal_efferent_arteriole_6" />
    <path
       class="cls-18"
       d="M246.39,264.1c.12-.34.73-.43,1.35-.17s1,.75.83,1.08-.75.37-1.34.13S246.26,264.44,246.39,264.1Z"
       transform="translate(-18.97 -19.42)"
       id="path617" />
    <path
       class="cls-17"
       d="M233.81,257.65c.64.15,1.39.39,1.54,1,.11.38,0,.42-.51.58s-1.11-.16-1.69-.09-1.34,0-1.9.05-.93.13-1.31.15-.75,0-1.33.1a6.16,6.16,0,0,0-2.3.58,8.12,8.12,0,0,0-1.26.84,5.37,5.37,0,0,1-2.12.82c-1.69.3-1.78-.25-2.52-.28a9.26,9.26,0,0,0-2,.21c-.86.23-.76.18-1.65.37a22.64,22.64,0,0,0-4.12,1.46c-.54.17-1.58.49-1.89.14s.09-.64.23-.76a9.28,9.28,0,0,1,2.64-1.45c2-.68,4-1.44,6-2,1-.29,2-.59,3.07-.86a30.68,30.68,0,0,1,3.2-.63l2.19-.31a12.4,12.4,0,0,1,2.37-.31,10.18,10.18,0,0,1,3.32.43"
       transform="translate(-18.97 -19.42)"
       id="renal_efferent_arteriole_5" />
    <path
       class="cls-18"
       d="M222,260.2c-.11-.34.32-.78.94-1s1.24,0,1.33.34-.35.77-1,.92S222.1,260.55,222,260.2Z"
       transform="translate(-18.97 -19.42)"
       id="path621" />
    <path
       class="cls-17"
       d="M208.4,263.72c.55-.22,1.23-.43,1.69-.1s.31.29,0,.78-1,.56-1.45.89-1.2.66-1.7.95a15.48,15.48,0,0,1-2.39,1.26,6.42,6.42,0,0,0-3.07,2.41,5.83,5.83,0,0,1-1.89,1.31c-1.55.69-1.77.18-2.51.33a7.6,7.6,0,0,0-1.81.72c-.78.44-.69.37-1.51.77a24.55,24.55,0,0,0-3.52,2.59c-.46.33-1.35,1-1.75.73s-.11-.64,0-.8a7.81,7.81,0,0,1,2.11-2.18,54.6,54.6,0,0,1,11-6.6c.64-.31,1.31-.57,1.94-.92s1.37-.81,2-1.1a17.64,17.64,0,0,1,2.93-1.05"
       transform="translate(-18.97 -19.42)"
       id="renal_efferent_arteriole_4" />
    <path
       class="cls-18"
       d="M198.33,270c-.19-.31.12-.83.69-1.17s1.19-.3,1.36,0-.16.82-.72,1.13S198.51,270.35,198.33,270Z"
       transform="translate(-18.97 -19.42)"
       id="path625" />
    <path
       class="cls-17"
       d="M186.24,277.3c.46-.4,1-.83,1.59-.65.37.12.39.19.22.74s-.74.85-1.07,1.32-.93,1-1.27,1.46a14.22,14.22,0,0,1-1.8,2,6.38,6.38,0,0,0-1.93,3.37,5.12,5.12,0,0,1-1.21,1.94c-1.16,1.23-1.55.86-2.15,1.3a6.94,6.94,0,0,0-1.38,1.38c-.52.73-.47.62-1.05,1.34a9.82,9.82,0,0,0-1.31,2.14c-.26.59-.48,1.07-.81,1.67s-.82,1.44-1.29,1.4-.37-.54-.35-.72a8.07,8.07,0,0,1,1-2.87,46.91,46.91,0,0,1,7.44-10.5,20.06,20.06,0,0,0,1.46-1.6c.45-.52,1-1.25,1.51-1.73a14.08,14.08,0,0,1,2.42-2"
       transform="translate(-18.97 -19.42)"
       id="renal_efferent_arteriole_3" />
    <path
       class="cls-18"
       d="M179.14,286.88c-.29-.21-.2-.81.21-1.33s1-.75,1.24-.53.19.83-.21,1.33S179.43,287.09,179.14,286.88Z"
       transform="translate(-18.97 -19.42)"
       id="path629" />
    <path
       class="cls-17"
       d="M171.15,298.49c.26-.54.59-1.17,1.17-1.24.39-.05.42,0,.52.57s-.33,1.09-.44,1.66-.44,1.29-.55,1.85a13.62,13.62,0,0,1-.86,2.57,6.63,6.63,0,0,0-.47,3.87,5.24,5.24,0,0,1-.42,2.27c-.65,1.59-1.15,1.37-1.56,2a8.47,8.47,0,0,0-.83,1.78c-.26.86-.25.74-.55,1.6-.78,2.14-.52,2.95-.89,4.28-.15.55-.39,1.61-.85,1.69s-.5-.41-.54-.59a9,9,0,0,1,.15-3,70.84,70.84,0,0,1,3.36-12.3,21.11,21.11,0,0,0,.72-2,20.57,20.57,0,0,1,.68-2.19,14.12,14.12,0,0,1,1.37-2.81"
       transform="translate(-18.97 -19.42)"
       id="renal_efferent_arteriole_2" />
    <path
       class="cls-18"
       d="M168.37,310.07c-.35-.1-.49-.69-.3-1.32s.61-1.05,1-.94.48.69.3,1.31S168.71,310.16,168.37,310.07Z"
       transform="translate(-18.97 -19.42)"
       id="path633" />
    <path
       class="cls-17"
       d="M164.3,323.5c.11-.58.3-1.26.83-1.48.36-.15.41-.11.65.42s-.06,1.13,0,1.7-.07,1.37-.07,1.95a18,18,0,0,1-.26,2.7,6.9,6.9,0,0,0,.29,3.91,5.24,5.24,0,0,1,0,2.33c-.37,1.69-.91,1.56-1.23,2.24a10.14,10.14,0,0,0-.55,1.88c-.14.89-.14.77-.33,1.67a29.21,29.21,0,0,0-.34,4.36c-.08.56-.23,1.64-.68,1.76s-.54-.35-.59-.53a9.28,9.28,0,0,1-.19-3,123,123,0,0,1,1.39-12.56c.12-.7.26-1.4.31-2.11a21.08,21.08,0,0,1,.16-2.25,19.42,19.42,0,0,1,.65-3"
       transform="translate(-18.97 -19.42)"
       id="renal_efferent_arteriole_1" />
    <path
       class="cls-18"
       d="M164,335.35c-.36,0-.6-.59-.53-1.24s.43-1.14.78-1.1.6.6.53,1.24S164.36,335.39,164,335.35Z"
       transform="translate(-18.97 -19.42)"
       id="path637" />
  </g>
</svg>
